%TF.GenerationSoftware,KiCad,Pcbnew,5.1.10*%
%TF.CreationDate,2021-06-08T01:23:06+10:00*%
%TF.ProjectId,mail-to-telegram,6d61696c-2d74-46f2-9d74-656c65677261,v1.0*%
%TF.SameCoordinates,Original*%
%TF.FileFunction,Copper,L1,Top*%
%TF.FilePolarity,Positive*%
%FSLAX46Y46*%
G04 Gerber Fmt 4.6, Leading zero omitted, Abs format (unit mm)*
G04 Created by KiCad (PCBNEW 5.1.10) date 2021-06-08 01:23:06*
%MOMM*%
%LPD*%
G01*
G04 APERTURE LIST*
%TA.AperFunction,ComponentPad*%
%ADD10C,3.000000*%
%TD*%
%TA.AperFunction,ComponentPad*%
%ADD11R,3.000000X3.000000*%
%TD*%
%TA.AperFunction,SMDPad,CuDef*%
%ADD12R,2.180000X1.600000*%
%TD*%
%TA.AperFunction,SMDPad,CuDef*%
%ADD13R,1.060000X0.650000*%
%TD*%
%TA.AperFunction,ComponentPad*%
%ADD14O,1.700000X1.700000*%
%TD*%
%TA.AperFunction,ComponentPad*%
%ADD15R,1.700000X1.700000*%
%TD*%
%TA.AperFunction,SMDPad,CuDef*%
%ADD16R,2.000000X0.900000*%
%TD*%
%TA.AperFunction,SMDPad,CuDef*%
%ADD17R,0.900000X2.000000*%
%TD*%
%TA.AperFunction,SMDPad,CuDef*%
%ADD18R,5.000000X5.000000*%
%TD*%
%TA.AperFunction,ComponentPad*%
%ADD19C,2.400000*%
%TD*%
%TA.AperFunction,ComponentPad*%
%ADD20R,2.400000X2.400000*%
%TD*%
%TA.AperFunction,ViaPad*%
%ADD21C,0.800000*%
%TD*%
%TA.AperFunction,Conductor*%
%ADD22C,0.750000*%
%TD*%
%TA.AperFunction,Conductor*%
%ADD23C,0.300000*%
%TD*%
%TA.AperFunction,Conductor*%
%ADD24C,0.250000*%
%TD*%
%TA.AperFunction,Conductor*%
%ADD25C,0.254000*%
%TD*%
%TA.AperFunction,Conductor*%
%ADD26C,0.100000*%
%TD*%
G04 APERTURE END LIST*
D10*
%TO.P,BT1,2*%
%TO.N,GND*%
X123000000Y-99800000D03*
D11*
%TO.P,BT1,1*%
%TO.N,+BATT*%
X123000000Y-112500000D03*
%TD*%
%TO.P,R3,2*%
%TO.N,+3V3*%
%TA.AperFunction,SMDPad,CuDef*%
G36*
G01*
X148375000Y-101862500D02*
X148375000Y-102337500D01*
G75*
G02*
X148137500Y-102575000I-237500J0D01*
G01*
X147637500Y-102575000D01*
G75*
G02*
X147400000Y-102337500I0J237500D01*
G01*
X147400000Y-101862500D01*
G75*
G02*
X147637500Y-101625000I237500J0D01*
G01*
X148137500Y-101625000D01*
G75*
G02*
X148375000Y-101862500I0J-237500D01*
G01*
G37*
%TD.AperFunction*%
%TO.P,R3,1*%
%TO.N,ENABLE*%
%TA.AperFunction,SMDPad,CuDef*%
G36*
G01*
X150200000Y-101862500D02*
X150200000Y-102337500D01*
G75*
G02*
X149962500Y-102575000I-237500J0D01*
G01*
X149462500Y-102575000D01*
G75*
G02*
X149225000Y-102337500I0J237500D01*
G01*
X149225000Y-101862500D01*
G75*
G02*
X149462500Y-101625000I237500J0D01*
G01*
X149962500Y-101625000D01*
G75*
G02*
X150200000Y-101862500I0J-237500D01*
G01*
G37*
%TD.AperFunction*%
%TD*%
D12*
%TO.P,SW1,2*%
%TO.N,GND*%
X140410000Y-107000000D03*
%TO.P,SW1,1*%
%TO.N,ENABLE*%
X149590000Y-107000000D03*
%TD*%
%TO.P,C6,2*%
%TO.N,GND*%
%TA.AperFunction,SMDPad,CuDef*%
G36*
G01*
X148512500Y-103662500D02*
X148512500Y-104137500D01*
G75*
G02*
X148275000Y-104375000I-237500J0D01*
G01*
X147675000Y-104375000D01*
G75*
G02*
X147437500Y-104137500I0J237500D01*
G01*
X147437500Y-103662500D01*
G75*
G02*
X147675000Y-103425000I237500J0D01*
G01*
X148275000Y-103425000D01*
G75*
G02*
X148512500Y-103662500I0J-237500D01*
G01*
G37*
%TD.AperFunction*%
%TO.P,C6,1*%
%TO.N,ENABLE*%
%TA.AperFunction,SMDPad,CuDef*%
G36*
G01*
X150237500Y-103662500D02*
X150237500Y-104137500D01*
G75*
G02*
X150000000Y-104375000I-237500J0D01*
G01*
X149400000Y-104375000D01*
G75*
G02*
X149162500Y-104137500I0J237500D01*
G01*
X149162500Y-103662500D01*
G75*
G02*
X149400000Y-103425000I237500J0D01*
G01*
X150000000Y-103425000D01*
G75*
G02*
X150237500Y-103662500I0J-237500D01*
G01*
G37*
%TD.AperFunction*%
%TD*%
D13*
%TO.P,U1,5*%
%TO.N,+3V3*%
X129100000Y-104950000D03*
%TO.P,U1,4*%
%TO.N,Net-(C2-Pad1)*%
X129100000Y-106850000D03*
%TO.P,U1,3*%
%TO.N,+BATT*%
X126900000Y-106850000D03*
%TO.P,U1,2*%
%TO.N,GND*%
X126900000Y-105900000D03*
%TO.P,U1,1*%
%TO.N,+BATT*%
X126900000Y-104950000D03*
%TD*%
D14*
%TO.P,J2,4*%
%TO.N,GPIO34*%
X141620000Y-79500000D03*
%TO.P,J2,3*%
%TO.N,GPIO35*%
X139080000Y-79500000D03*
%TO.P,J2,2*%
%TO.N,GPIO32*%
X136540000Y-79500000D03*
D15*
%TO.P,J2,1*%
%TO.N,GPIO27*%
X134000000Y-79500000D03*
%TD*%
D14*
%TO.P,J1,5*%
%TO.N,UART_TX*%
X144160000Y-75500000D03*
%TO.P,J1,4*%
%TO.N,UART_RX*%
X141620000Y-75500000D03*
%TO.P,J1,3*%
%TO.N,GND*%
X139080000Y-75500000D03*
%TO.P,J1,2*%
%TO.N,+3V3*%
X136540000Y-75500000D03*
D15*
%TO.P,J1,1*%
%TO.N,+BATT*%
X134000000Y-75500000D03*
%TD*%
D16*
%TO.P,U2,38*%
%TO.N,GND*%
X171000000Y-83245000D03*
%TO.P,U2,37*%
%TO.N,Net-(U2-Pad37)*%
X171000000Y-84515000D03*
%TO.P,U2,36*%
%TO.N,Net-(U2-Pad36)*%
X171000000Y-85785000D03*
%TO.P,U2,35*%
%TO.N,UART_TX*%
X171000000Y-87055000D03*
%TO.P,U2,34*%
%TO.N,UART_RX*%
X171000000Y-88325000D03*
%TO.P,U2,33*%
%TO.N,Net-(U2-Pad33)*%
X171000000Y-89595000D03*
%TO.P,U2,32*%
%TO.N,Net-(U2-Pad32)*%
X171000000Y-90865000D03*
%TO.P,U2,31*%
%TO.N,Net-(U2-Pad31)*%
X171000000Y-92135000D03*
%TO.P,U2,30*%
%TO.N,Net-(U2-Pad30)*%
X171000000Y-93405000D03*
%TO.P,U2,29*%
%TO.N,Net-(U2-Pad29)*%
X171000000Y-94675000D03*
%TO.P,U2,28*%
%TO.N,Net-(U2-Pad28)*%
X171000000Y-95945000D03*
%TO.P,U2,27*%
%TO.N,Net-(U2-Pad27)*%
X171000000Y-97215000D03*
%TO.P,U2,26*%
%TO.N,Net-(U2-Pad26)*%
X171000000Y-98485000D03*
%TO.P,U2,25*%
%TO.N,Net-(U2-Pad25)*%
X171000000Y-99755000D03*
D17*
%TO.P,U2,24*%
%TO.N,Net-(U2-Pad24)*%
X168215000Y-100755000D03*
%TO.P,U2,23*%
%TO.N,TOUCH*%
X166945000Y-100755000D03*
%TO.P,U2,22*%
%TO.N,Net-(U2-Pad22)*%
X165675000Y-100755000D03*
%TO.P,U2,21*%
%TO.N,Net-(U2-Pad21)*%
X164405000Y-100755000D03*
%TO.P,U2,20*%
%TO.N,Net-(U2-Pad20)*%
X163135000Y-100755000D03*
%TO.P,U2,19*%
%TO.N,Net-(U2-Pad19)*%
X161865000Y-100755000D03*
%TO.P,U2,18*%
%TO.N,Net-(U2-Pad18)*%
X160595000Y-100755000D03*
%TO.P,U2,17*%
%TO.N,Net-(U2-Pad17)*%
X159325000Y-100755000D03*
%TO.P,U2,16*%
%TO.N,REED_SW*%
X158055000Y-100755000D03*
%TO.P,U2,15*%
%TO.N,GND*%
X156785000Y-100755000D03*
D16*
%TO.P,U2,14*%
%TO.N,Net-(U2-Pad14)*%
X154000000Y-99755000D03*
%TO.P,U2,13*%
%TO.N,Net-(U2-Pad13)*%
X154000000Y-98485000D03*
%TO.P,U2,12*%
%TO.N,GPIO27*%
X154000000Y-97215000D03*
%TO.P,U2,11*%
%TO.N,LED_BUILTIN*%
X154000000Y-95945000D03*
%TO.P,U2,10*%
%TO.N,Net-(U2-Pad10)*%
X154000000Y-94675000D03*
%TO.P,U2,9*%
%TO.N,Net-(U2-Pad9)*%
X154000000Y-93405000D03*
%TO.P,U2,8*%
%TO.N,GPIO32*%
X154000000Y-92135000D03*
%TO.P,U2,7*%
%TO.N,GPIO35*%
X154000000Y-90865000D03*
%TO.P,U2,6*%
%TO.N,GPIO34*%
X154000000Y-89595000D03*
%TO.P,U2,5*%
%TO.N,Net-(U2-Pad5)*%
X154000000Y-88325000D03*
%TO.P,U2,4*%
%TO.N,BAT_ADC*%
X154000000Y-87055000D03*
%TO.P,U2,3*%
%TO.N,ENABLE*%
X154000000Y-85785000D03*
%TO.P,U2,2*%
%TO.N,+3V3*%
X154000000Y-84515000D03*
%TO.P,U2,1*%
%TO.N,GND*%
X154000000Y-83245000D03*
D18*
%TO.P,U2,39*%
X161500000Y-90745000D03*
%TD*%
%TO.P,R5,2*%
%TO.N,LED_BUILTIN*%
%TA.AperFunction,SMDPad,CuDef*%
G36*
G01*
X151237500Y-96137500D02*
X151237500Y-95662500D01*
G75*
G02*
X151475000Y-95425000I237500J0D01*
G01*
X151975000Y-95425000D01*
G75*
G02*
X152212500Y-95662500I0J-237500D01*
G01*
X152212500Y-96137500D01*
G75*
G02*
X151975000Y-96375000I-237500J0D01*
G01*
X151475000Y-96375000D01*
G75*
G02*
X151237500Y-96137500I0J237500D01*
G01*
G37*
%TD.AperFunction*%
%TO.P,R5,1*%
%TO.N,Net-(D1-Pad2)*%
%TA.AperFunction,SMDPad,CuDef*%
G36*
G01*
X149412500Y-96137500D02*
X149412500Y-95662500D01*
G75*
G02*
X149650000Y-95425000I237500J0D01*
G01*
X150150000Y-95425000D01*
G75*
G02*
X150387500Y-95662500I0J-237500D01*
G01*
X150387500Y-96137500D01*
G75*
G02*
X150150000Y-96375000I-237500J0D01*
G01*
X149650000Y-96375000D01*
G75*
G02*
X149412500Y-96137500I0J237500D01*
G01*
G37*
%TD.AperFunction*%
%TD*%
%TO.P,R4,2*%
%TO.N,REED_SW*%
%TA.AperFunction,SMDPad,CuDef*%
G36*
G01*
X157412500Y-104137500D02*
X157412500Y-103662500D01*
G75*
G02*
X157650000Y-103425000I237500J0D01*
G01*
X158150000Y-103425000D01*
G75*
G02*
X158387500Y-103662500I0J-237500D01*
G01*
X158387500Y-104137500D01*
G75*
G02*
X158150000Y-104375000I-237500J0D01*
G01*
X157650000Y-104375000D01*
G75*
G02*
X157412500Y-104137500I0J237500D01*
G01*
G37*
%TD.AperFunction*%
%TO.P,R4,1*%
%TO.N,+3V3*%
%TA.AperFunction,SMDPad,CuDef*%
G36*
G01*
X155587500Y-104137500D02*
X155587500Y-103662500D01*
G75*
G02*
X155825000Y-103425000I237500J0D01*
G01*
X156325000Y-103425000D01*
G75*
G02*
X156562500Y-103662500I0J-237500D01*
G01*
X156562500Y-104137500D01*
G75*
G02*
X156325000Y-104375000I-237500J0D01*
G01*
X155825000Y-104375000D01*
G75*
G02*
X155587500Y-104137500I0J237500D01*
G01*
G37*
%TD.AperFunction*%
%TD*%
%TO.P,R2,2*%
%TO.N,GND*%
%TA.AperFunction,SMDPad,CuDef*%
G36*
G01*
X128812500Y-101737500D02*
X129287500Y-101737500D01*
G75*
G02*
X129525000Y-101975000I0J-237500D01*
G01*
X129525000Y-102475000D01*
G75*
G02*
X129287500Y-102712500I-237500J0D01*
G01*
X128812500Y-102712500D01*
G75*
G02*
X128575000Y-102475000I0J237500D01*
G01*
X128575000Y-101975000D01*
G75*
G02*
X128812500Y-101737500I237500J0D01*
G01*
G37*
%TD.AperFunction*%
%TO.P,R2,1*%
%TO.N,BAT_ADC*%
%TA.AperFunction,SMDPad,CuDef*%
G36*
G01*
X128812500Y-99912500D02*
X129287500Y-99912500D01*
G75*
G02*
X129525000Y-100150000I0J-237500D01*
G01*
X129525000Y-100650000D01*
G75*
G02*
X129287500Y-100887500I-237500J0D01*
G01*
X128812500Y-100887500D01*
G75*
G02*
X128575000Y-100650000I0J237500D01*
G01*
X128575000Y-100150000D01*
G75*
G02*
X128812500Y-99912500I237500J0D01*
G01*
G37*
%TD.AperFunction*%
%TD*%
%TO.P,R1,2*%
%TO.N,BAT_ADC*%
%TA.AperFunction,SMDPad,CuDef*%
G36*
G01*
X127537500Y-100862500D02*
X127062500Y-100862500D01*
G75*
G02*
X126825000Y-100625000I0J237500D01*
G01*
X126825000Y-100125000D01*
G75*
G02*
X127062500Y-99887500I237500J0D01*
G01*
X127537500Y-99887500D01*
G75*
G02*
X127775000Y-100125000I0J-237500D01*
G01*
X127775000Y-100625000D01*
G75*
G02*
X127537500Y-100862500I-237500J0D01*
G01*
G37*
%TD.AperFunction*%
%TO.P,R1,1*%
%TO.N,+BATT*%
%TA.AperFunction,SMDPad,CuDef*%
G36*
G01*
X127537500Y-102687500D02*
X127062500Y-102687500D01*
G75*
G02*
X126825000Y-102450000I0J237500D01*
G01*
X126825000Y-101950000D01*
G75*
G02*
X127062500Y-101712500I237500J0D01*
G01*
X127537500Y-101712500D01*
G75*
G02*
X127775000Y-101950000I0J-237500D01*
G01*
X127775000Y-102450000D01*
G75*
G02*
X127537500Y-102687500I-237500J0D01*
G01*
G37*
%TD.AperFunction*%
%TD*%
D19*
%TO.P,J3,3*%
%TO.N,GND*%
X129500000Y-78000000D03*
%TO.P,J3,2*%
%TO.N,REED_SW*%
X126000000Y-78000000D03*
D20*
%TO.P,J3,1*%
%TO.N,TOUCH*%
X122500000Y-78000000D03*
%TD*%
%TO.P,D1,2*%
%TO.N,Net-(D1-Pad2)*%
%TA.AperFunction,SMDPad,CuDef*%
G36*
G01*
X150375000Y-93962500D02*
X150375000Y-94437500D01*
G75*
G02*
X150137500Y-94675000I-237500J0D01*
G01*
X149562500Y-94675000D01*
G75*
G02*
X149325000Y-94437500I0J237500D01*
G01*
X149325000Y-93962500D01*
G75*
G02*
X149562500Y-93725000I237500J0D01*
G01*
X150137500Y-93725000D01*
G75*
G02*
X150375000Y-93962500I0J-237500D01*
G01*
G37*
%TD.AperFunction*%
%TO.P,D1,1*%
%TO.N,GND*%
%TA.AperFunction,SMDPad,CuDef*%
G36*
G01*
X152125000Y-93962500D02*
X152125000Y-94437500D01*
G75*
G02*
X151887500Y-94675000I-237500J0D01*
G01*
X151312500Y-94675000D01*
G75*
G02*
X151075000Y-94437500I0J237500D01*
G01*
X151075000Y-93962500D01*
G75*
G02*
X151312500Y-93725000I237500J0D01*
G01*
X151887500Y-93725000D01*
G75*
G02*
X152125000Y-93962500I0J-237500D01*
G01*
G37*
%TD.AperFunction*%
%TD*%
%TO.P,C5,2*%
%TO.N,GND*%
%TA.AperFunction,SMDPad,CuDef*%
G36*
G01*
X150337500Y-84362500D02*
X150337500Y-84837500D01*
G75*
G02*
X150100000Y-85075000I-237500J0D01*
G01*
X149500000Y-85075000D01*
G75*
G02*
X149262500Y-84837500I0J237500D01*
G01*
X149262500Y-84362500D01*
G75*
G02*
X149500000Y-84125000I237500J0D01*
G01*
X150100000Y-84125000D01*
G75*
G02*
X150337500Y-84362500I0J-237500D01*
G01*
G37*
%TD.AperFunction*%
%TO.P,C5,1*%
%TO.N,+3V3*%
%TA.AperFunction,SMDPad,CuDef*%
G36*
G01*
X152062500Y-84362500D02*
X152062500Y-84837500D01*
G75*
G02*
X151825000Y-85075000I-237500J0D01*
G01*
X151225000Y-85075000D01*
G75*
G02*
X150987500Y-84837500I0J237500D01*
G01*
X150987500Y-84362500D01*
G75*
G02*
X151225000Y-84125000I237500J0D01*
G01*
X151825000Y-84125000D01*
G75*
G02*
X152062500Y-84362500I0J-237500D01*
G01*
G37*
%TD.AperFunction*%
%TD*%
%TO.P,C4,2*%
%TO.N,GND*%
%TA.AperFunction,SMDPad,CuDef*%
G36*
G01*
X150337500Y-85862500D02*
X150337500Y-86337500D01*
G75*
G02*
X150100000Y-86575000I-237500J0D01*
G01*
X149500000Y-86575000D01*
G75*
G02*
X149262500Y-86337500I0J237500D01*
G01*
X149262500Y-85862500D01*
G75*
G02*
X149500000Y-85625000I237500J0D01*
G01*
X150100000Y-85625000D01*
G75*
G02*
X150337500Y-85862500I0J-237500D01*
G01*
G37*
%TD.AperFunction*%
%TO.P,C4,1*%
%TO.N,+3V3*%
%TA.AperFunction,SMDPad,CuDef*%
G36*
G01*
X152062500Y-85862500D02*
X152062500Y-86337500D01*
G75*
G02*
X151825000Y-86575000I-237500J0D01*
G01*
X151225000Y-86575000D01*
G75*
G02*
X150987500Y-86337500I0J237500D01*
G01*
X150987500Y-85862500D01*
G75*
G02*
X151225000Y-85625000I237500J0D01*
G01*
X151825000Y-85625000D01*
G75*
G02*
X152062500Y-85862500I0J-237500D01*
G01*
G37*
%TD.AperFunction*%
%TD*%
%TO.P,C3,2*%
%TO.N,GND*%
%TA.AperFunction,SMDPad,CuDef*%
G36*
G01*
X132187500Y-105237500D02*
X132187500Y-104762500D01*
G75*
G02*
X132425000Y-104525000I237500J0D01*
G01*
X133025000Y-104525000D01*
G75*
G02*
X133262500Y-104762500I0J-237500D01*
G01*
X133262500Y-105237500D01*
G75*
G02*
X133025000Y-105475000I-237500J0D01*
G01*
X132425000Y-105475000D01*
G75*
G02*
X132187500Y-105237500I0J237500D01*
G01*
G37*
%TD.AperFunction*%
%TO.P,C3,1*%
%TO.N,+3V3*%
%TA.AperFunction,SMDPad,CuDef*%
G36*
G01*
X130462500Y-105237500D02*
X130462500Y-104762500D01*
G75*
G02*
X130700000Y-104525000I237500J0D01*
G01*
X131300000Y-104525000D01*
G75*
G02*
X131537500Y-104762500I0J-237500D01*
G01*
X131537500Y-105237500D01*
G75*
G02*
X131300000Y-105475000I-237500J0D01*
G01*
X130700000Y-105475000D01*
G75*
G02*
X130462500Y-105237500I0J237500D01*
G01*
G37*
%TD.AperFunction*%
%TD*%
%TO.P,C2,2*%
%TO.N,GND*%
%TA.AperFunction,SMDPad,CuDef*%
G36*
G01*
X132187500Y-107037500D02*
X132187500Y-106562500D01*
G75*
G02*
X132425000Y-106325000I237500J0D01*
G01*
X133025000Y-106325000D01*
G75*
G02*
X133262500Y-106562500I0J-237500D01*
G01*
X133262500Y-107037500D01*
G75*
G02*
X133025000Y-107275000I-237500J0D01*
G01*
X132425000Y-107275000D01*
G75*
G02*
X132187500Y-107037500I0J237500D01*
G01*
G37*
%TD.AperFunction*%
%TO.P,C2,1*%
%TO.N,Net-(C2-Pad1)*%
%TA.AperFunction,SMDPad,CuDef*%
G36*
G01*
X130462500Y-107037500D02*
X130462500Y-106562500D01*
G75*
G02*
X130700000Y-106325000I237500J0D01*
G01*
X131300000Y-106325000D01*
G75*
G02*
X131537500Y-106562500I0J-237500D01*
G01*
X131537500Y-107037500D01*
G75*
G02*
X131300000Y-107275000I-237500J0D01*
G01*
X130700000Y-107275000D01*
G75*
G02*
X130462500Y-107037500I0J237500D01*
G01*
G37*
%TD.AperFunction*%
%TD*%
%TO.P,C1,2*%
%TO.N,GND*%
%TA.AperFunction,SMDPad,CuDef*%
G36*
G01*
X124162500Y-106212500D02*
X124637500Y-106212500D01*
G75*
G02*
X124875000Y-106450000I0J-237500D01*
G01*
X124875000Y-107050000D01*
G75*
G02*
X124637500Y-107287500I-237500J0D01*
G01*
X124162500Y-107287500D01*
G75*
G02*
X123925000Y-107050000I0J237500D01*
G01*
X123925000Y-106450000D01*
G75*
G02*
X124162500Y-106212500I237500J0D01*
G01*
G37*
%TD.AperFunction*%
%TO.P,C1,1*%
%TO.N,+BATT*%
%TA.AperFunction,SMDPad,CuDef*%
G36*
G01*
X124162500Y-104487500D02*
X124637500Y-104487500D01*
G75*
G02*
X124875000Y-104725000I0J-237500D01*
G01*
X124875000Y-105325000D01*
G75*
G02*
X124637500Y-105562500I-237500J0D01*
G01*
X124162500Y-105562500D01*
G75*
G02*
X123925000Y-105325000I0J237500D01*
G01*
X123925000Y-104725000D01*
G75*
G02*
X124162500Y-104487500I237500J0D01*
G01*
G37*
%TD.AperFunction*%
%TD*%
D21*
%TO.N,+3V3*%
X130050000Y-104950000D03*
X125500000Y-103400000D03*
X151500000Y-87900000D03*
X144800000Y-94600000D03*
%TO.N,REED_SW*%
X157700000Y-105000000D03*
%TO.N,TOUCH*%
X166900000Y-102700000D03*
%TO.N,GND*%
X161500000Y-90800000D03*
X161500000Y-92700000D03*
X163400000Y-90800000D03*
X161500000Y-88900000D03*
X159600000Y-90800000D03*
X159600000Y-92700000D03*
X163400000Y-92700000D03*
X163400000Y-88900000D03*
X159600000Y-88900000D03*
X124400000Y-107900000D03*
X125600000Y-105925000D03*
X134000000Y-105000000D03*
X134000000Y-106800000D03*
X149800000Y-85400000D03*
X151155000Y-83245000D03*
X169400000Y-83200000D03*
X156800000Y-102800000D03*
X128100000Y-103600000D03*
X140400000Y-105400000D03*
X148000000Y-105200000D03*
X151600000Y-92900000D03*
%TD*%
D22*
%TO.N,+BATT*%
X124400000Y-105063436D02*
X124400000Y-105025000D01*
X123000000Y-106463436D02*
X124400000Y-105063436D01*
X123000000Y-112500000D02*
X123000000Y-106463436D01*
X124475000Y-104950000D02*
X126900000Y-104950000D01*
X124400000Y-105025000D02*
X124475000Y-104950000D01*
D23*
X127730000Y-106850000D02*
X126900000Y-106850000D01*
X127780001Y-106799999D02*
X127730000Y-106850000D01*
X127780001Y-105000001D02*
X127780001Y-106799999D01*
X127730000Y-104950000D02*
X127780001Y-105000001D01*
X126900000Y-104950000D02*
X127730000Y-104950000D01*
D22*
X120724999Y-101349999D02*
X124400000Y-105025000D01*
X120724999Y-76339999D02*
X120724999Y-101349999D01*
X121564998Y-75500000D02*
X120724999Y-76339999D01*
X133500000Y-75500000D02*
X121564998Y-75500000D01*
D23*
X126900000Y-102600000D02*
X127300000Y-102200000D01*
X126900000Y-104950000D02*
X126900000Y-102600000D01*
D22*
%TO.N,Net-(C2-Pad1)*%
X130950000Y-106850000D02*
X131000000Y-106800000D01*
X129100000Y-106850000D02*
X130950000Y-106850000D01*
%TO.N,+3V3*%
X151610000Y-84515000D02*
X151525000Y-84600000D01*
X154000000Y-84515000D02*
X151610000Y-84515000D01*
X151525000Y-85774998D02*
X151525000Y-86100000D01*
X152784998Y-84515000D02*
X151525000Y-85774998D01*
X154000000Y-84515000D02*
X152784998Y-84515000D01*
X151525000Y-84600000D02*
X151525000Y-86100000D01*
D23*
X148112500Y-101887500D02*
X148100000Y-101900000D01*
D22*
X131000000Y-105000000D02*
X130100000Y-105000000D01*
X130100000Y-105000000D02*
X130050000Y-104950000D01*
X129100000Y-104950000D02*
X130050000Y-104950000D01*
X151525000Y-87875000D02*
X151500000Y-87900000D01*
X151525000Y-86100000D02*
X151525000Y-87875000D01*
D23*
%TO.N,ENABLE*%
X149590000Y-102222500D02*
X149712500Y-102100000D01*
X149590000Y-107000000D02*
X149590000Y-102222500D01*
X154810002Y-85785000D02*
X154000000Y-85785000D01*
X155850011Y-101257109D02*
X155850011Y-86825009D01*
X155007120Y-102100000D02*
X155850011Y-101257109D01*
X155850011Y-86825009D02*
X154810002Y-85785000D01*
X149712500Y-102100000D02*
X155007120Y-102100000D01*
%TO.N,Net-(D1-Pad2)*%
X149900000Y-94250000D02*
X149850000Y-94200000D01*
X149900000Y-95900000D02*
X149900000Y-94250000D01*
D24*
%TO.N,UART_TX*%
X143660000Y-80569636D02*
X143660000Y-75500000D01*
X145015374Y-81925010D02*
X143660000Y-80569636D01*
X155425010Y-81925010D02*
X145015374Y-81925010D01*
X160555000Y-87055000D02*
X155425010Y-81925010D01*
X171000000Y-87055000D02*
X160555000Y-87055000D01*
%TO.N,UART_RX*%
X143200000Y-77580000D02*
X141120000Y-75500000D01*
X143200000Y-80746046D02*
X143200000Y-77580000D01*
X144828973Y-82375019D02*
X143200000Y-80746046D01*
X155175019Y-82375019D02*
X144828973Y-82375019D01*
X160305010Y-87505010D02*
X155175019Y-82375019D01*
X168930010Y-87505010D02*
X160305010Y-87505010D01*
X169750000Y-88325000D02*
X168930010Y-87505010D01*
X171000000Y-88325000D02*
X169750000Y-88325000D01*
D23*
%TO.N,GPIO35*%
X151777880Y-90865000D02*
X154000000Y-90865000D01*
X139780001Y-80700001D02*
X141612881Y-80700001D01*
X141612881Y-80700001D02*
X151777880Y-90865000D01*
X138580000Y-79500000D02*
X139780001Y-80700001D01*
%TO.N,GPIO34*%
X151215000Y-89595000D02*
X154000000Y-89595000D01*
X141120000Y-79500000D02*
X151215000Y-89595000D01*
%TO.N,GPIO32*%
X146783998Y-92135000D02*
X154000000Y-92135000D01*
X136040000Y-81391002D02*
X146783998Y-92135000D01*
X136040000Y-79500000D02*
X136040000Y-81391002D01*
%TO.N,GPIO27*%
X149379998Y-97215000D02*
X154000000Y-97215000D01*
X133500000Y-81335002D02*
X149379998Y-97215000D01*
X133500000Y-79500000D02*
X133500000Y-81335002D01*
%TO.N,REED_SW*%
X158055000Y-103755000D02*
X158100000Y-103800000D01*
X158055000Y-100755000D02*
X158055000Y-103755000D01*
X158100000Y-104600000D02*
X157700000Y-105000000D01*
X158100000Y-103800000D02*
X158100000Y-104600000D01*
%TO.N,TOUCH*%
X166900000Y-100800000D02*
X166945000Y-100755000D01*
X166900000Y-102700000D02*
X166900000Y-100800000D01*
%TO.N,BAT_ADC*%
X154810002Y-87055000D02*
X154000000Y-87055000D01*
X155350001Y-87594999D02*
X154810002Y-87055000D01*
X155350001Y-100485001D02*
X155350001Y-87594999D01*
X129025000Y-100375000D02*
X129050000Y-100400000D01*
X127300000Y-100375000D02*
X129025000Y-100375000D01*
X155280001Y-100555001D02*
X155350001Y-100485001D01*
X129205001Y-100555001D02*
X155280001Y-100555001D01*
X129050000Y-100400000D02*
X129205001Y-100555001D01*
%TO.N,LED_BUILTIN*%
X153955000Y-95900000D02*
X154000000Y-95945000D01*
X151725000Y-95900000D02*
X153955000Y-95900000D01*
D22*
%TO.N,GND*%
X124400000Y-106750000D02*
X124400000Y-107900000D01*
X125250000Y-105900000D02*
X124400000Y-106750000D01*
X126900000Y-105900000D02*
X125250000Y-105900000D01*
X125625000Y-105900000D02*
X125600000Y-105925000D01*
X126900000Y-105900000D02*
X125625000Y-105900000D01*
X132725000Y-105000000D02*
X134000000Y-105000000D01*
X132725000Y-106800000D02*
X134000000Y-106800000D01*
X149800000Y-84638436D02*
X149800000Y-85400000D01*
X149800000Y-85400000D02*
X149800000Y-86100000D01*
X149800000Y-84600000D02*
X151155000Y-83245000D01*
X154000000Y-83245000D02*
X151155000Y-83245000D01*
X169445000Y-83245000D02*
X169400000Y-83200000D01*
X171000000Y-83245000D02*
X169445000Y-83245000D01*
D23*
X156785000Y-102785000D02*
X156800000Y-102800000D01*
X156785000Y-100755000D02*
X156785000Y-102785000D01*
X129050000Y-102650000D02*
X128100000Y-103600000D01*
X129050000Y-102225000D02*
X129050000Y-102650000D01*
X140410000Y-105410000D02*
X140400000Y-105400000D01*
X140410000Y-107000000D02*
X140410000Y-105410000D01*
X147975000Y-105175000D02*
X148000000Y-105200000D01*
X147975000Y-103900000D02*
X147975000Y-105175000D01*
X151600000Y-94200000D02*
X151600000Y-92900000D01*
%TD*%
D25*
%TO.N,+3V3*%
X172815001Y-103716262D02*
X157216264Y-119315000D01*
X120685000Y-119315000D01*
X120685000Y-102738355D01*
X122990863Y-105044218D01*
X122320901Y-105714180D01*
X122282368Y-105745803D01*
X122250745Y-105784336D01*
X122250744Y-105784337D01*
X122156154Y-105899596D01*
X122062368Y-106075057D01*
X122004615Y-106265442D01*
X121985114Y-106463436D01*
X121990001Y-106513054D01*
X121990000Y-110361928D01*
X121500000Y-110361928D01*
X121375518Y-110374188D01*
X121255820Y-110410498D01*
X121145506Y-110469463D01*
X121048815Y-110548815D01*
X120969463Y-110645506D01*
X120910498Y-110755820D01*
X120874188Y-110875518D01*
X120861928Y-111000000D01*
X120861928Y-114000000D01*
X120874188Y-114124482D01*
X120910498Y-114244180D01*
X120969463Y-114354494D01*
X121048815Y-114451185D01*
X121145506Y-114530537D01*
X121255820Y-114589502D01*
X121375518Y-114625812D01*
X121500000Y-114638072D01*
X124500000Y-114638072D01*
X124624482Y-114625812D01*
X124744180Y-114589502D01*
X124854494Y-114530537D01*
X124951185Y-114451185D01*
X125030537Y-114354494D01*
X125089502Y-114244180D01*
X125125812Y-114124482D01*
X125138072Y-114000000D01*
X125138072Y-112267560D01*
X144360000Y-112267560D01*
X144360000Y-112732440D01*
X144450694Y-113188387D01*
X144628595Y-113617879D01*
X144886868Y-114004412D01*
X145215588Y-114333132D01*
X145602121Y-114591405D01*
X146031613Y-114769306D01*
X146487560Y-114860000D01*
X146952440Y-114860000D01*
X147408387Y-114769306D01*
X147837879Y-114591405D01*
X148224412Y-114333132D01*
X148553132Y-114004412D01*
X148811405Y-113617879D01*
X148989306Y-113188387D01*
X149080000Y-112732440D01*
X149080000Y-112267560D01*
X148989306Y-111811613D01*
X148811405Y-111382121D01*
X148553132Y-110995588D01*
X148224412Y-110666868D01*
X147837879Y-110408595D01*
X147408387Y-110230694D01*
X146952440Y-110140000D01*
X146487560Y-110140000D01*
X146031613Y-110230694D01*
X145602121Y-110408595D01*
X145215588Y-110666868D01*
X144886868Y-110995588D01*
X144628595Y-111382121D01*
X144450694Y-111811613D01*
X144360000Y-112267560D01*
X125138072Y-112267560D01*
X125138072Y-111000000D01*
X125125812Y-110875518D01*
X125089502Y-110755820D01*
X125030537Y-110645506D01*
X124951185Y-110548815D01*
X124854494Y-110469463D01*
X124744180Y-110410498D01*
X124624482Y-110374188D01*
X124500000Y-110361928D01*
X124010000Y-110361928D01*
X124010000Y-108858733D01*
X124098102Y-108895226D01*
X124298061Y-108935000D01*
X124501939Y-108935000D01*
X124701898Y-108895226D01*
X124890256Y-108817205D01*
X125059774Y-108703937D01*
X125203937Y-108559774D01*
X125317205Y-108390256D01*
X125395226Y-108201898D01*
X125435000Y-108001939D01*
X125435000Y-107798061D01*
X125410000Y-107672377D01*
X125410000Y-107453210D01*
X125446423Y-107385067D01*
X125496248Y-107220816D01*
X125511402Y-107066953D01*
X125618356Y-106960000D01*
X125701939Y-106960000D01*
X125731928Y-106954035D01*
X125731928Y-107175000D01*
X125744188Y-107299482D01*
X125780498Y-107419180D01*
X125839463Y-107529494D01*
X125918815Y-107626185D01*
X126015506Y-107705537D01*
X126125820Y-107764502D01*
X126245518Y-107800812D01*
X126370000Y-107813072D01*
X127430000Y-107813072D01*
X127554482Y-107800812D01*
X127674180Y-107764502D01*
X127784494Y-107705537D01*
X127881185Y-107626185D01*
X127883219Y-107623707D01*
X127883887Y-107623641D01*
X128031860Y-107578754D01*
X128065245Y-107560910D01*
X128118815Y-107626185D01*
X128215506Y-107705537D01*
X128325820Y-107764502D01*
X128445518Y-107800812D01*
X128570000Y-107813072D01*
X128795484Y-107813072D01*
X128902006Y-107845385D01*
X129050392Y-107860000D01*
X130409690Y-107860000D01*
X130529184Y-107896248D01*
X130700000Y-107913072D01*
X131300000Y-107913072D01*
X131470816Y-107896248D01*
X131635067Y-107846423D01*
X131786442Y-107765512D01*
X131862500Y-107703093D01*
X131938558Y-107765512D01*
X132089933Y-107846423D01*
X132254184Y-107896248D01*
X132425000Y-107913072D01*
X133025000Y-107913072D01*
X133195816Y-107896248D01*
X133360067Y-107846423D01*
X133428210Y-107810000D01*
X133772377Y-107810000D01*
X133898061Y-107835000D01*
X134101939Y-107835000D01*
X134301898Y-107795226D01*
X134490256Y-107717205D01*
X134659774Y-107603937D01*
X134803937Y-107459774D01*
X134917205Y-107290256D01*
X134995226Y-107101898D01*
X135035000Y-106901939D01*
X135035000Y-106698061D01*
X134995226Y-106498102D01*
X134917205Y-106309744D01*
X134843877Y-106200000D01*
X138681928Y-106200000D01*
X138681928Y-107800000D01*
X138694188Y-107924482D01*
X138730498Y-108044180D01*
X138789463Y-108154494D01*
X138868815Y-108251185D01*
X138965506Y-108330537D01*
X139075820Y-108389502D01*
X139195518Y-108425812D01*
X139320000Y-108438072D01*
X141500000Y-108438072D01*
X141624482Y-108425812D01*
X141744180Y-108389502D01*
X141854494Y-108330537D01*
X141951185Y-108251185D01*
X142030537Y-108154494D01*
X142089502Y-108044180D01*
X142125812Y-107924482D01*
X142138072Y-107800000D01*
X142138072Y-106200000D01*
X142125812Y-106075518D01*
X142089502Y-105955820D01*
X142030537Y-105845506D01*
X141951185Y-105748815D01*
X141854494Y-105669463D01*
X141744180Y-105610498D01*
X141624482Y-105574188D01*
X141500000Y-105561928D01*
X141423068Y-105561928D01*
X141435000Y-105501939D01*
X141435000Y-105298061D01*
X141395226Y-105098102D01*
X141317205Y-104909744D01*
X141203937Y-104740226D01*
X141059774Y-104596063D01*
X140890256Y-104482795D01*
X140701898Y-104404774D01*
X140501939Y-104365000D01*
X140298061Y-104365000D01*
X140098102Y-104404774D01*
X139909744Y-104482795D01*
X139740226Y-104596063D01*
X139596063Y-104740226D01*
X139482795Y-104909744D01*
X139404774Y-105098102D01*
X139365000Y-105298061D01*
X139365000Y-105501939D01*
X139376932Y-105561928D01*
X139320000Y-105561928D01*
X139195518Y-105574188D01*
X139075820Y-105610498D01*
X138965506Y-105669463D01*
X138868815Y-105748815D01*
X138789463Y-105845506D01*
X138730498Y-105955820D01*
X138694188Y-106075518D01*
X138681928Y-106200000D01*
X134843877Y-106200000D01*
X134803937Y-106140226D01*
X134659774Y-105996063D01*
X134516005Y-105900000D01*
X134659774Y-105803937D01*
X134803937Y-105659774D01*
X134917205Y-105490256D01*
X134995226Y-105301898D01*
X135035000Y-105101939D01*
X135035000Y-104898061D01*
X134995226Y-104698102D01*
X134917205Y-104509744D01*
X134803937Y-104340226D01*
X134659774Y-104196063D01*
X134490256Y-104082795D01*
X134301898Y-104004774D01*
X134101939Y-103965000D01*
X133898061Y-103965000D01*
X133772377Y-103990000D01*
X133428210Y-103990000D01*
X133360067Y-103953577D01*
X133195816Y-103903752D01*
X133025000Y-103886928D01*
X132425000Y-103886928D01*
X132254184Y-103903752D01*
X132089933Y-103953577D01*
X131939894Y-104033774D01*
X131891994Y-103994463D01*
X131781680Y-103935498D01*
X131661982Y-103899188D01*
X131537500Y-103886928D01*
X131285750Y-103890000D01*
X131127000Y-104048750D01*
X131127000Y-104873000D01*
X131147000Y-104873000D01*
X131147000Y-105127000D01*
X131127000Y-105127000D01*
X131127000Y-105147000D01*
X130873000Y-105147000D01*
X130873000Y-105127000D01*
X130156250Y-105127000D01*
X130106250Y-105077000D01*
X129227000Y-105077000D01*
X129227000Y-105097000D01*
X128973000Y-105097000D01*
X128973000Y-105077000D01*
X128953000Y-105077000D01*
X128953000Y-104823000D01*
X128973000Y-104823000D01*
X128973000Y-104156414D01*
X128978120Y-104148750D01*
X129227000Y-104148750D01*
X129227000Y-104823000D01*
X129936250Y-104823000D01*
X129986250Y-104873000D01*
X130873000Y-104873000D01*
X130873000Y-104048750D01*
X130714250Y-103890000D01*
X130462500Y-103886928D01*
X130338018Y-103899188D01*
X130218320Y-103935498D01*
X130108006Y-103994463D01*
X130011315Y-104073815D01*
X129990395Y-104099306D01*
X129984494Y-104094463D01*
X129874180Y-104035498D01*
X129754482Y-103999188D01*
X129630000Y-103986928D01*
X129385750Y-103990000D01*
X129227000Y-104148750D01*
X128978120Y-104148750D01*
X129017205Y-104090256D01*
X129095226Y-103901898D01*
X129135000Y-103701939D01*
X129135000Y-103675157D01*
X129484287Y-103325870D01*
X129622567Y-103283923D01*
X129773942Y-103203012D01*
X129906623Y-103094123D01*
X130015512Y-102961442D01*
X130096423Y-102810067D01*
X130146248Y-102645816D01*
X130163072Y-102475000D01*
X130163072Y-101975000D01*
X130146248Y-101804184D01*
X130096423Y-101639933D01*
X130015512Y-101488558D01*
X129906623Y-101355877D01*
X129887278Y-101340001D01*
X146832317Y-101340001D01*
X146810498Y-101380820D01*
X146774188Y-101500518D01*
X146761928Y-101625000D01*
X146765000Y-101814250D01*
X146923750Y-101973000D01*
X147760500Y-101973000D01*
X147760500Y-101953000D01*
X148014500Y-101953000D01*
X148014500Y-101973000D01*
X148034500Y-101973000D01*
X148034500Y-102227000D01*
X148014500Y-102227000D01*
X148014500Y-102247000D01*
X147760500Y-102247000D01*
X147760500Y-102227000D01*
X146923750Y-102227000D01*
X146765000Y-102385750D01*
X146761928Y-102575000D01*
X146774188Y-102699482D01*
X146810498Y-102819180D01*
X146869463Y-102929494D01*
X146948815Y-103026185D01*
X147021220Y-103085606D01*
X146946988Y-103176058D01*
X146866077Y-103327433D01*
X146816252Y-103491684D01*
X146799428Y-103662500D01*
X146799428Y-104137500D01*
X146816252Y-104308316D01*
X146866077Y-104472567D01*
X146946988Y-104623942D01*
X147055877Y-104756623D01*
X147061474Y-104761217D01*
X147004774Y-104898102D01*
X146965000Y-105098061D01*
X146965000Y-105301939D01*
X147004774Y-105501898D01*
X147082795Y-105690256D01*
X147196063Y-105859774D01*
X147340226Y-106003937D01*
X147509744Y-106117205D01*
X147698102Y-106195226D01*
X147861928Y-106227813D01*
X147861928Y-107800000D01*
X147874188Y-107924482D01*
X147910498Y-108044180D01*
X147969463Y-108154494D01*
X148048815Y-108251185D01*
X148145506Y-108330537D01*
X148255820Y-108389502D01*
X148375518Y-108425812D01*
X148500000Y-108438072D01*
X150680000Y-108438072D01*
X150804482Y-108425812D01*
X150924180Y-108389502D01*
X151034494Y-108330537D01*
X151131185Y-108251185D01*
X151210537Y-108154494D01*
X151269502Y-108044180D01*
X151305812Y-107924482D01*
X151318072Y-107800000D01*
X151318072Y-106200000D01*
X151305812Y-106075518D01*
X151269502Y-105955820D01*
X151210537Y-105845506D01*
X151131185Y-105748815D01*
X151034494Y-105669463D01*
X150924180Y-105610498D01*
X150804482Y-105574188D01*
X150680000Y-105561928D01*
X150375000Y-105561928D01*
X150375000Y-104925079D01*
X150486442Y-104865512D01*
X150619123Y-104756623D01*
X150728012Y-104623942D01*
X150808923Y-104472567D01*
X150838519Y-104375000D01*
X154949428Y-104375000D01*
X154961688Y-104499482D01*
X154997998Y-104619180D01*
X155056963Y-104729494D01*
X155136315Y-104826185D01*
X155233006Y-104905537D01*
X155343320Y-104964502D01*
X155463018Y-105000812D01*
X155587500Y-105013072D01*
X155789250Y-105010000D01*
X155948000Y-104851250D01*
X155948000Y-104027000D01*
X155111250Y-104027000D01*
X154952500Y-104185750D01*
X154949428Y-104375000D01*
X150838519Y-104375000D01*
X150858748Y-104308316D01*
X150875572Y-104137500D01*
X150875572Y-103662500D01*
X150858748Y-103491684D01*
X150808923Y-103327433D01*
X150728012Y-103176058D01*
X150619123Y-103043377D01*
X150547518Y-102984612D01*
X150581623Y-102956623D01*
X150640403Y-102885000D01*
X154968567Y-102885000D01*
X155007120Y-102888797D01*
X155045673Y-102885000D01*
X155045681Y-102885000D01*
X155161007Y-102873641D01*
X155308980Y-102828754D01*
X155445353Y-102755862D01*
X155564884Y-102657764D01*
X155589467Y-102627810D01*
X155865302Y-102351975D01*
X155804774Y-102498102D01*
X155765000Y-102698061D01*
X155765000Y-102789631D01*
X155587500Y-102786928D01*
X155463018Y-102799188D01*
X155343320Y-102835498D01*
X155233006Y-102894463D01*
X155136315Y-102973815D01*
X155056963Y-103070506D01*
X154997998Y-103180820D01*
X154961688Y-103300518D01*
X154949428Y-103425000D01*
X154952500Y-103614250D01*
X155111250Y-103773000D01*
X155948000Y-103773000D01*
X155948000Y-103753000D01*
X156202000Y-103753000D01*
X156202000Y-103773000D01*
X156222000Y-103773000D01*
X156222000Y-104027000D01*
X156202000Y-104027000D01*
X156202000Y-104851250D01*
X156360750Y-105010000D01*
X156562500Y-105013072D01*
X156665000Y-105002977D01*
X156665000Y-105101939D01*
X156704774Y-105301898D01*
X156782795Y-105490256D01*
X156896063Y-105659774D01*
X157040226Y-105803937D01*
X157209744Y-105917205D01*
X157398102Y-105995226D01*
X157598061Y-106035000D01*
X157801939Y-106035000D01*
X158001898Y-105995226D01*
X158190256Y-105917205D01*
X158359774Y-105803937D01*
X158503937Y-105659774D01*
X158617205Y-105490256D01*
X158695226Y-105301898D01*
X158735000Y-105101939D01*
X158735000Y-105063653D01*
X158755862Y-105038233D01*
X158828754Y-104901860D01*
X158863194Y-104788328D01*
X158873641Y-104753888D01*
X158877989Y-104709744D01*
X158885000Y-104638561D01*
X158885000Y-104638554D01*
X158888343Y-104604615D01*
X158958923Y-104472567D01*
X159008748Y-104308316D01*
X159025572Y-104137500D01*
X159025572Y-103662500D01*
X159008748Y-103491684D01*
X158958923Y-103327433D01*
X158878012Y-103176058D01*
X158840000Y-103129740D01*
X158840000Y-102389625D01*
X158875000Y-102393072D01*
X159775000Y-102393072D01*
X159899482Y-102380812D01*
X159960000Y-102362454D01*
X160020518Y-102380812D01*
X160145000Y-102393072D01*
X161045000Y-102393072D01*
X161169482Y-102380812D01*
X161230000Y-102362454D01*
X161290518Y-102380812D01*
X161415000Y-102393072D01*
X162315000Y-102393072D01*
X162439482Y-102380812D01*
X162500000Y-102362454D01*
X162560518Y-102380812D01*
X162685000Y-102393072D01*
X163585000Y-102393072D01*
X163709482Y-102380812D01*
X163770000Y-102362454D01*
X163830518Y-102380812D01*
X163955000Y-102393072D01*
X164855000Y-102393072D01*
X164979482Y-102380812D01*
X165040000Y-102362454D01*
X165100518Y-102380812D01*
X165225000Y-102393072D01*
X165906858Y-102393072D01*
X165904774Y-102398102D01*
X165865000Y-102598061D01*
X165865000Y-102801939D01*
X165904774Y-103001898D01*
X165982795Y-103190256D01*
X166096063Y-103359774D01*
X166240226Y-103503937D01*
X166409744Y-103617205D01*
X166598102Y-103695226D01*
X166798061Y-103735000D01*
X167001939Y-103735000D01*
X167201898Y-103695226D01*
X167390256Y-103617205D01*
X167559774Y-103503937D01*
X167703937Y-103359774D01*
X167817205Y-103190256D01*
X167895226Y-103001898D01*
X167935000Y-102801939D01*
X167935000Y-102598061D01*
X167895226Y-102398102D01*
X167893142Y-102393072D01*
X168665000Y-102393072D01*
X168789482Y-102380812D01*
X168909180Y-102344502D01*
X169019494Y-102285537D01*
X169116185Y-102206185D01*
X169195537Y-102109494D01*
X169254502Y-101999180D01*
X169290812Y-101879482D01*
X169303072Y-101755000D01*
X169303072Y-99755000D01*
X169290812Y-99630518D01*
X169254502Y-99510820D01*
X169195537Y-99400506D01*
X169116185Y-99303815D01*
X169019494Y-99224463D01*
X168909180Y-99165498D01*
X168789482Y-99129188D01*
X168665000Y-99116928D01*
X167765000Y-99116928D01*
X167640518Y-99129188D01*
X167580000Y-99147546D01*
X167519482Y-99129188D01*
X167395000Y-99116928D01*
X166495000Y-99116928D01*
X166370518Y-99129188D01*
X166310000Y-99147546D01*
X166249482Y-99129188D01*
X166125000Y-99116928D01*
X165225000Y-99116928D01*
X165100518Y-99129188D01*
X165040000Y-99147546D01*
X164979482Y-99129188D01*
X164855000Y-99116928D01*
X163955000Y-99116928D01*
X163830518Y-99129188D01*
X163770000Y-99147546D01*
X163709482Y-99129188D01*
X163585000Y-99116928D01*
X162685000Y-99116928D01*
X162560518Y-99129188D01*
X162500000Y-99147546D01*
X162439482Y-99129188D01*
X162315000Y-99116928D01*
X161415000Y-99116928D01*
X161290518Y-99129188D01*
X161230000Y-99147546D01*
X161169482Y-99129188D01*
X161045000Y-99116928D01*
X160145000Y-99116928D01*
X160020518Y-99129188D01*
X159960000Y-99147546D01*
X159899482Y-99129188D01*
X159775000Y-99116928D01*
X158875000Y-99116928D01*
X158750518Y-99129188D01*
X158690000Y-99147546D01*
X158629482Y-99129188D01*
X158505000Y-99116928D01*
X157605000Y-99116928D01*
X157480518Y-99129188D01*
X157420000Y-99147546D01*
X157359482Y-99129188D01*
X157235000Y-99116928D01*
X156635011Y-99116928D01*
X156635011Y-86863565D01*
X156638808Y-86825009D01*
X156635011Y-86786453D01*
X156635011Y-86786448D01*
X156629520Y-86730694D01*
X156623653Y-86671122D01*
X156578765Y-86523149D01*
X156560181Y-86488380D01*
X156505873Y-86386776D01*
X156407775Y-86267245D01*
X156377821Y-86242662D01*
X155638072Y-85502913D01*
X155638072Y-85335000D01*
X155625812Y-85210518D01*
X155607454Y-85150000D01*
X155625812Y-85089482D01*
X155638072Y-84965000D01*
X155635000Y-84800750D01*
X155476250Y-84642000D01*
X154127000Y-84642000D01*
X154127000Y-84662000D01*
X153873000Y-84662000D01*
X153873000Y-84642000D01*
X152523750Y-84642000D01*
X152438750Y-84727000D01*
X151652000Y-84727000D01*
X151652000Y-85973000D01*
X151672000Y-85973000D01*
X151672000Y-86227000D01*
X151652000Y-86227000D01*
X151652000Y-87051250D01*
X151810750Y-87210000D01*
X152062500Y-87213072D01*
X152186982Y-87200812D01*
X152306680Y-87164502D01*
X152361928Y-87134971D01*
X152361928Y-87505000D01*
X152374188Y-87629482D01*
X152392546Y-87690000D01*
X152374188Y-87750518D01*
X152361928Y-87875000D01*
X152361928Y-88775000D01*
X152365375Y-88810000D01*
X151540158Y-88810000D01*
X149943230Y-87213072D01*
X150100000Y-87213072D01*
X150270816Y-87196248D01*
X150435067Y-87146423D01*
X150585106Y-87066226D01*
X150633006Y-87105537D01*
X150743320Y-87164502D01*
X150863018Y-87200812D01*
X150987500Y-87213072D01*
X151239250Y-87210000D01*
X151398000Y-87051250D01*
X151398000Y-86227000D01*
X151378000Y-86227000D01*
X151378000Y-85973000D01*
X151398000Y-85973000D01*
X151398000Y-84727000D01*
X151378000Y-84727000D01*
X151378000Y-84473000D01*
X151398000Y-84473000D01*
X151398000Y-84453000D01*
X151652000Y-84453000D01*
X151652000Y-84473000D01*
X152538750Y-84473000D01*
X152623750Y-84388000D01*
X153873000Y-84388000D01*
X153873000Y-84368000D01*
X154127000Y-84368000D01*
X154127000Y-84388000D01*
X155476250Y-84388000D01*
X155635000Y-84229250D01*
X155638072Y-84065000D01*
X155625812Y-83940518D01*
X155608436Y-83883237D01*
X159332126Y-87606928D01*
X159000000Y-87606928D01*
X158875518Y-87619188D01*
X158755820Y-87655498D01*
X158645506Y-87714463D01*
X158548815Y-87793815D01*
X158469463Y-87890506D01*
X158410498Y-88000820D01*
X158374188Y-88120518D01*
X158361928Y-88245000D01*
X158361928Y-93245000D01*
X158374188Y-93369482D01*
X158410498Y-93489180D01*
X158469463Y-93599494D01*
X158548815Y-93696185D01*
X158645506Y-93775537D01*
X158755820Y-93834502D01*
X158875518Y-93870812D01*
X159000000Y-93883072D01*
X164000000Y-93883072D01*
X164124482Y-93870812D01*
X164244180Y-93834502D01*
X164354494Y-93775537D01*
X164451185Y-93696185D01*
X164530537Y-93599494D01*
X164589502Y-93489180D01*
X164625812Y-93369482D01*
X164638072Y-93245000D01*
X164638072Y-88265010D01*
X168615209Y-88265010D01*
X169186201Y-88836002D01*
X169209999Y-88865001D01*
X169238997Y-88888799D01*
X169325723Y-88959974D01*
X169383230Y-88990712D01*
X169374188Y-89020518D01*
X169361928Y-89145000D01*
X169361928Y-90045000D01*
X169374188Y-90169482D01*
X169392546Y-90230000D01*
X169374188Y-90290518D01*
X169361928Y-90415000D01*
X169361928Y-91315000D01*
X169374188Y-91439482D01*
X169392546Y-91500000D01*
X169374188Y-91560518D01*
X169361928Y-91685000D01*
X169361928Y-92585000D01*
X169374188Y-92709482D01*
X169392546Y-92770000D01*
X169374188Y-92830518D01*
X169361928Y-92955000D01*
X169361928Y-93855000D01*
X169374188Y-93979482D01*
X169392546Y-94040000D01*
X169374188Y-94100518D01*
X169361928Y-94225000D01*
X169361928Y-95125000D01*
X169374188Y-95249482D01*
X169392546Y-95310000D01*
X169374188Y-95370518D01*
X169361928Y-95495000D01*
X169361928Y-96395000D01*
X169374188Y-96519482D01*
X169392546Y-96580000D01*
X169374188Y-96640518D01*
X169361928Y-96765000D01*
X169361928Y-97665000D01*
X169374188Y-97789482D01*
X169392546Y-97850000D01*
X169374188Y-97910518D01*
X169361928Y-98035000D01*
X169361928Y-98935000D01*
X169374188Y-99059482D01*
X169392546Y-99120000D01*
X169374188Y-99180518D01*
X169361928Y-99305000D01*
X169361928Y-100205000D01*
X169374188Y-100329482D01*
X169410498Y-100449180D01*
X169469463Y-100559494D01*
X169548815Y-100656185D01*
X169645506Y-100735537D01*
X169755820Y-100794502D01*
X169875518Y-100830812D01*
X170000000Y-100843072D01*
X172000000Y-100843072D01*
X172124482Y-100830812D01*
X172244180Y-100794502D01*
X172354494Y-100735537D01*
X172451185Y-100656185D01*
X172530537Y-100559494D01*
X172589502Y-100449180D01*
X172625812Y-100329482D01*
X172638072Y-100205000D01*
X172638072Y-99305000D01*
X172625812Y-99180518D01*
X172607454Y-99120000D01*
X172625812Y-99059482D01*
X172638072Y-98935000D01*
X172638072Y-98035000D01*
X172625812Y-97910518D01*
X172607454Y-97850000D01*
X172625812Y-97789482D01*
X172638072Y-97665000D01*
X172638072Y-96765000D01*
X172625812Y-96640518D01*
X172607454Y-96580000D01*
X172625812Y-96519482D01*
X172638072Y-96395000D01*
X172638072Y-95495000D01*
X172625812Y-95370518D01*
X172607454Y-95310000D01*
X172625812Y-95249482D01*
X172638072Y-95125000D01*
X172638072Y-94225000D01*
X172625812Y-94100518D01*
X172607454Y-94040000D01*
X172625812Y-93979482D01*
X172638072Y-93855000D01*
X172638072Y-92955000D01*
X172625812Y-92830518D01*
X172607454Y-92770000D01*
X172625812Y-92709482D01*
X172638072Y-92585000D01*
X172638072Y-91685000D01*
X172625812Y-91560518D01*
X172607454Y-91500000D01*
X172625812Y-91439482D01*
X172638072Y-91315000D01*
X172638072Y-90415000D01*
X172625812Y-90290518D01*
X172607454Y-90230000D01*
X172625812Y-90169482D01*
X172638072Y-90045000D01*
X172638072Y-89145000D01*
X172625812Y-89020518D01*
X172607454Y-88960000D01*
X172625812Y-88899482D01*
X172638072Y-88775000D01*
X172638072Y-87875000D01*
X172625812Y-87750518D01*
X172607454Y-87690000D01*
X172625812Y-87629482D01*
X172638072Y-87505000D01*
X172638072Y-86605000D01*
X172625812Y-86480518D01*
X172607454Y-86420000D01*
X172625812Y-86359482D01*
X172638072Y-86235000D01*
X172638072Y-85335000D01*
X172625812Y-85210518D01*
X172607454Y-85150000D01*
X172625812Y-85089482D01*
X172638072Y-84965000D01*
X172638072Y-84065000D01*
X172625812Y-83940518D01*
X172607454Y-83880000D01*
X172625812Y-83819482D01*
X172638072Y-83695000D01*
X172638072Y-82795000D01*
X172625812Y-82670518D01*
X172589502Y-82550820D01*
X172530537Y-82440506D01*
X172451185Y-82343815D01*
X172354494Y-82264463D01*
X172244180Y-82205498D01*
X172124482Y-82169188D01*
X172000000Y-82156928D01*
X170000000Y-82156928D01*
X169875518Y-82169188D01*
X169755820Y-82205498D01*
X169733041Y-82217674D01*
X169701898Y-82204774D01*
X169501939Y-82165000D01*
X169298061Y-82165000D01*
X169098102Y-82204774D01*
X168909744Y-82282795D01*
X168740226Y-82396063D01*
X168596063Y-82540226D01*
X168482795Y-82709744D01*
X168404774Y-82898102D01*
X168365000Y-83098061D01*
X168365000Y-83301939D01*
X168404774Y-83501898D01*
X168482795Y-83690256D01*
X168596063Y-83859774D01*
X168740226Y-84003937D01*
X168909744Y-84117205D01*
X169018475Y-84162243D01*
X169056620Y-84182632D01*
X169098007Y-84195187D01*
X169098102Y-84195226D01*
X169098203Y-84195246D01*
X169152184Y-84211621D01*
X169247006Y-84240385D01*
X169361928Y-84251704D01*
X169361928Y-84965000D01*
X169374188Y-85089482D01*
X169392546Y-85150000D01*
X169374188Y-85210518D01*
X169361928Y-85335000D01*
X169361928Y-86235000D01*
X169367837Y-86295000D01*
X160869803Y-86295000D01*
X156301801Y-81727000D01*
X172815000Y-81727000D01*
X172815001Y-103716262D01*
%TA.AperFunction,Conductor*%
D26*
G36*
X172815001Y-103716262D02*
G01*
X157216264Y-119315000D01*
X120685000Y-119315000D01*
X120685000Y-102738355D01*
X122990863Y-105044218D01*
X122320901Y-105714180D01*
X122282368Y-105745803D01*
X122250745Y-105784336D01*
X122250744Y-105784337D01*
X122156154Y-105899596D01*
X122062368Y-106075057D01*
X122004615Y-106265442D01*
X121985114Y-106463436D01*
X121990001Y-106513054D01*
X121990000Y-110361928D01*
X121500000Y-110361928D01*
X121375518Y-110374188D01*
X121255820Y-110410498D01*
X121145506Y-110469463D01*
X121048815Y-110548815D01*
X120969463Y-110645506D01*
X120910498Y-110755820D01*
X120874188Y-110875518D01*
X120861928Y-111000000D01*
X120861928Y-114000000D01*
X120874188Y-114124482D01*
X120910498Y-114244180D01*
X120969463Y-114354494D01*
X121048815Y-114451185D01*
X121145506Y-114530537D01*
X121255820Y-114589502D01*
X121375518Y-114625812D01*
X121500000Y-114638072D01*
X124500000Y-114638072D01*
X124624482Y-114625812D01*
X124744180Y-114589502D01*
X124854494Y-114530537D01*
X124951185Y-114451185D01*
X125030537Y-114354494D01*
X125089502Y-114244180D01*
X125125812Y-114124482D01*
X125138072Y-114000000D01*
X125138072Y-112267560D01*
X144360000Y-112267560D01*
X144360000Y-112732440D01*
X144450694Y-113188387D01*
X144628595Y-113617879D01*
X144886868Y-114004412D01*
X145215588Y-114333132D01*
X145602121Y-114591405D01*
X146031613Y-114769306D01*
X146487560Y-114860000D01*
X146952440Y-114860000D01*
X147408387Y-114769306D01*
X147837879Y-114591405D01*
X148224412Y-114333132D01*
X148553132Y-114004412D01*
X148811405Y-113617879D01*
X148989306Y-113188387D01*
X149080000Y-112732440D01*
X149080000Y-112267560D01*
X148989306Y-111811613D01*
X148811405Y-111382121D01*
X148553132Y-110995588D01*
X148224412Y-110666868D01*
X147837879Y-110408595D01*
X147408387Y-110230694D01*
X146952440Y-110140000D01*
X146487560Y-110140000D01*
X146031613Y-110230694D01*
X145602121Y-110408595D01*
X145215588Y-110666868D01*
X144886868Y-110995588D01*
X144628595Y-111382121D01*
X144450694Y-111811613D01*
X144360000Y-112267560D01*
X125138072Y-112267560D01*
X125138072Y-111000000D01*
X125125812Y-110875518D01*
X125089502Y-110755820D01*
X125030537Y-110645506D01*
X124951185Y-110548815D01*
X124854494Y-110469463D01*
X124744180Y-110410498D01*
X124624482Y-110374188D01*
X124500000Y-110361928D01*
X124010000Y-110361928D01*
X124010000Y-108858733D01*
X124098102Y-108895226D01*
X124298061Y-108935000D01*
X124501939Y-108935000D01*
X124701898Y-108895226D01*
X124890256Y-108817205D01*
X125059774Y-108703937D01*
X125203937Y-108559774D01*
X125317205Y-108390256D01*
X125395226Y-108201898D01*
X125435000Y-108001939D01*
X125435000Y-107798061D01*
X125410000Y-107672377D01*
X125410000Y-107453210D01*
X125446423Y-107385067D01*
X125496248Y-107220816D01*
X125511402Y-107066953D01*
X125618356Y-106960000D01*
X125701939Y-106960000D01*
X125731928Y-106954035D01*
X125731928Y-107175000D01*
X125744188Y-107299482D01*
X125780498Y-107419180D01*
X125839463Y-107529494D01*
X125918815Y-107626185D01*
X126015506Y-107705537D01*
X126125820Y-107764502D01*
X126245518Y-107800812D01*
X126370000Y-107813072D01*
X127430000Y-107813072D01*
X127554482Y-107800812D01*
X127674180Y-107764502D01*
X127784494Y-107705537D01*
X127881185Y-107626185D01*
X127883219Y-107623707D01*
X127883887Y-107623641D01*
X128031860Y-107578754D01*
X128065245Y-107560910D01*
X128118815Y-107626185D01*
X128215506Y-107705537D01*
X128325820Y-107764502D01*
X128445518Y-107800812D01*
X128570000Y-107813072D01*
X128795484Y-107813072D01*
X128902006Y-107845385D01*
X129050392Y-107860000D01*
X130409690Y-107860000D01*
X130529184Y-107896248D01*
X130700000Y-107913072D01*
X131300000Y-107913072D01*
X131470816Y-107896248D01*
X131635067Y-107846423D01*
X131786442Y-107765512D01*
X131862500Y-107703093D01*
X131938558Y-107765512D01*
X132089933Y-107846423D01*
X132254184Y-107896248D01*
X132425000Y-107913072D01*
X133025000Y-107913072D01*
X133195816Y-107896248D01*
X133360067Y-107846423D01*
X133428210Y-107810000D01*
X133772377Y-107810000D01*
X133898061Y-107835000D01*
X134101939Y-107835000D01*
X134301898Y-107795226D01*
X134490256Y-107717205D01*
X134659774Y-107603937D01*
X134803937Y-107459774D01*
X134917205Y-107290256D01*
X134995226Y-107101898D01*
X135035000Y-106901939D01*
X135035000Y-106698061D01*
X134995226Y-106498102D01*
X134917205Y-106309744D01*
X134843877Y-106200000D01*
X138681928Y-106200000D01*
X138681928Y-107800000D01*
X138694188Y-107924482D01*
X138730498Y-108044180D01*
X138789463Y-108154494D01*
X138868815Y-108251185D01*
X138965506Y-108330537D01*
X139075820Y-108389502D01*
X139195518Y-108425812D01*
X139320000Y-108438072D01*
X141500000Y-108438072D01*
X141624482Y-108425812D01*
X141744180Y-108389502D01*
X141854494Y-108330537D01*
X141951185Y-108251185D01*
X142030537Y-108154494D01*
X142089502Y-108044180D01*
X142125812Y-107924482D01*
X142138072Y-107800000D01*
X142138072Y-106200000D01*
X142125812Y-106075518D01*
X142089502Y-105955820D01*
X142030537Y-105845506D01*
X141951185Y-105748815D01*
X141854494Y-105669463D01*
X141744180Y-105610498D01*
X141624482Y-105574188D01*
X141500000Y-105561928D01*
X141423068Y-105561928D01*
X141435000Y-105501939D01*
X141435000Y-105298061D01*
X141395226Y-105098102D01*
X141317205Y-104909744D01*
X141203937Y-104740226D01*
X141059774Y-104596063D01*
X140890256Y-104482795D01*
X140701898Y-104404774D01*
X140501939Y-104365000D01*
X140298061Y-104365000D01*
X140098102Y-104404774D01*
X139909744Y-104482795D01*
X139740226Y-104596063D01*
X139596063Y-104740226D01*
X139482795Y-104909744D01*
X139404774Y-105098102D01*
X139365000Y-105298061D01*
X139365000Y-105501939D01*
X139376932Y-105561928D01*
X139320000Y-105561928D01*
X139195518Y-105574188D01*
X139075820Y-105610498D01*
X138965506Y-105669463D01*
X138868815Y-105748815D01*
X138789463Y-105845506D01*
X138730498Y-105955820D01*
X138694188Y-106075518D01*
X138681928Y-106200000D01*
X134843877Y-106200000D01*
X134803937Y-106140226D01*
X134659774Y-105996063D01*
X134516005Y-105900000D01*
X134659774Y-105803937D01*
X134803937Y-105659774D01*
X134917205Y-105490256D01*
X134995226Y-105301898D01*
X135035000Y-105101939D01*
X135035000Y-104898061D01*
X134995226Y-104698102D01*
X134917205Y-104509744D01*
X134803937Y-104340226D01*
X134659774Y-104196063D01*
X134490256Y-104082795D01*
X134301898Y-104004774D01*
X134101939Y-103965000D01*
X133898061Y-103965000D01*
X133772377Y-103990000D01*
X133428210Y-103990000D01*
X133360067Y-103953577D01*
X133195816Y-103903752D01*
X133025000Y-103886928D01*
X132425000Y-103886928D01*
X132254184Y-103903752D01*
X132089933Y-103953577D01*
X131939894Y-104033774D01*
X131891994Y-103994463D01*
X131781680Y-103935498D01*
X131661982Y-103899188D01*
X131537500Y-103886928D01*
X131285750Y-103890000D01*
X131127000Y-104048750D01*
X131127000Y-104873000D01*
X131147000Y-104873000D01*
X131147000Y-105127000D01*
X131127000Y-105127000D01*
X131127000Y-105147000D01*
X130873000Y-105147000D01*
X130873000Y-105127000D01*
X130156250Y-105127000D01*
X130106250Y-105077000D01*
X129227000Y-105077000D01*
X129227000Y-105097000D01*
X128973000Y-105097000D01*
X128973000Y-105077000D01*
X128953000Y-105077000D01*
X128953000Y-104823000D01*
X128973000Y-104823000D01*
X128973000Y-104156414D01*
X128978120Y-104148750D01*
X129227000Y-104148750D01*
X129227000Y-104823000D01*
X129936250Y-104823000D01*
X129986250Y-104873000D01*
X130873000Y-104873000D01*
X130873000Y-104048750D01*
X130714250Y-103890000D01*
X130462500Y-103886928D01*
X130338018Y-103899188D01*
X130218320Y-103935498D01*
X130108006Y-103994463D01*
X130011315Y-104073815D01*
X129990395Y-104099306D01*
X129984494Y-104094463D01*
X129874180Y-104035498D01*
X129754482Y-103999188D01*
X129630000Y-103986928D01*
X129385750Y-103990000D01*
X129227000Y-104148750D01*
X128978120Y-104148750D01*
X129017205Y-104090256D01*
X129095226Y-103901898D01*
X129135000Y-103701939D01*
X129135000Y-103675157D01*
X129484287Y-103325870D01*
X129622567Y-103283923D01*
X129773942Y-103203012D01*
X129906623Y-103094123D01*
X130015512Y-102961442D01*
X130096423Y-102810067D01*
X130146248Y-102645816D01*
X130163072Y-102475000D01*
X130163072Y-101975000D01*
X130146248Y-101804184D01*
X130096423Y-101639933D01*
X130015512Y-101488558D01*
X129906623Y-101355877D01*
X129887278Y-101340001D01*
X146832317Y-101340001D01*
X146810498Y-101380820D01*
X146774188Y-101500518D01*
X146761928Y-101625000D01*
X146765000Y-101814250D01*
X146923750Y-101973000D01*
X147760500Y-101973000D01*
X147760500Y-101953000D01*
X148014500Y-101953000D01*
X148014500Y-101973000D01*
X148034500Y-101973000D01*
X148034500Y-102227000D01*
X148014500Y-102227000D01*
X148014500Y-102247000D01*
X147760500Y-102247000D01*
X147760500Y-102227000D01*
X146923750Y-102227000D01*
X146765000Y-102385750D01*
X146761928Y-102575000D01*
X146774188Y-102699482D01*
X146810498Y-102819180D01*
X146869463Y-102929494D01*
X146948815Y-103026185D01*
X147021220Y-103085606D01*
X146946988Y-103176058D01*
X146866077Y-103327433D01*
X146816252Y-103491684D01*
X146799428Y-103662500D01*
X146799428Y-104137500D01*
X146816252Y-104308316D01*
X146866077Y-104472567D01*
X146946988Y-104623942D01*
X147055877Y-104756623D01*
X147061474Y-104761217D01*
X147004774Y-104898102D01*
X146965000Y-105098061D01*
X146965000Y-105301939D01*
X147004774Y-105501898D01*
X147082795Y-105690256D01*
X147196063Y-105859774D01*
X147340226Y-106003937D01*
X147509744Y-106117205D01*
X147698102Y-106195226D01*
X147861928Y-106227813D01*
X147861928Y-107800000D01*
X147874188Y-107924482D01*
X147910498Y-108044180D01*
X147969463Y-108154494D01*
X148048815Y-108251185D01*
X148145506Y-108330537D01*
X148255820Y-108389502D01*
X148375518Y-108425812D01*
X148500000Y-108438072D01*
X150680000Y-108438072D01*
X150804482Y-108425812D01*
X150924180Y-108389502D01*
X151034494Y-108330537D01*
X151131185Y-108251185D01*
X151210537Y-108154494D01*
X151269502Y-108044180D01*
X151305812Y-107924482D01*
X151318072Y-107800000D01*
X151318072Y-106200000D01*
X151305812Y-106075518D01*
X151269502Y-105955820D01*
X151210537Y-105845506D01*
X151131185Y-105748815D01*
X151034494Y-105669463D01*
X150924180Y-105610498D01*
X150804482Y-105574188D01*
X150680000Y-105561928D01*
X150375000Y-105561928D01*
X150375000Y-104925079D01*
X150486442Y-104865512D01*
X150619123Y-104756623D01*
X150728012Y-104623942D01*
X150808923Y-104472567D01*
X150838519Y-104375000D01*
X154949428Y-104375000D01*
X154961688Y-104499482D01*
X154997998Y-104619180D01*
X155056963Y-104729494D01*
X155136315Y-104826185D01*
X155233006Y-104905537D01*
X155343320Y-104964502D01*
X155463018Y-105000812D01*
X155587500Y-105013072D01*
X155789250Y-105010000D01*
X155948000Y-104851250D01*
X155948000Y-104027000D01*
X155111250Y-104027000D01*
X154952500Y-104185750D01*
X154949428Y-104375000D01*
X150838519Y-104375000D01*
X150858748Y-104308316D01*
X150875572Y-104137500D01*
X150875572Y-103662500D01*
X150858748Y-103491684D01*
X150808923Y-103327433D01*
X150728012Y-103176058D01*
X150619123Y-103043377D01*
X150547518Y-102984612D01*
X150581623Y-102956623D01*
X150640403Y-102885000D01*
X154968567Y-102885000D01*
X155007120Y-102888797D01*
X155045673Y-102885000D01*
X155045681Y-102885000D01*
X155161007Y-102873641D01*
X155308980Y-102828754D01*
X155445353Y-102755862D01*
X155564884Y-102657764D01*
X155589467Y-102627810D01*
X155865302Y-102351975D01*
X155804774Y-102498102D01*
X155765000Y-102698061D01*
X155765000Y-102789631D01*
X155587500Y-102786928D01*
X155463018Y-102799188D01*
X155343320Y-102835498D01*
X155233006Y-102894463D01*
X155136315Y-102973815D01*
X155056963Y-103070506D01*
X154997998Y-103180820D01*
X154961688Y-103300518D01*
X154949428Y-103425000D01*
X154952500Y-103614250D01*
X155111250Y-103773000D01*
X155948000Y-103773000D01*
X155948000Y-103753000D01*
X156202000Y-103753000D01*
X156202000Y-103773000D01*
X156222000Y-103773000D01*
X156222000Y-104027000D01*
X156202000Y-104027000D01*
X156202000Y-104851250D01*
X156360750Y-105010000D01*
X156562500Y-105013072D01*
X156665000Y-105002977D01*
X156665000Y-105101939D01*
X156704774Y-105301898D01*
X156782795Y-105490256D01*
X156896063Y-105659774D01*
X157040226Y-105803937D01*
X157209744Y-105917205D01*
X157398102Y-105995226D01*
X157598061Y-106035000D01*
X157801939Y-106035000D01*
X158001898Y-105995226D01*
X158190256Y-105917205D01*
X158359774Y-105803937D01*
X158503937Y-105659774D01*
X158617205Y-105490256D01*
X158695226Y-105301898D01*
X158735000Y-105101939D01*
X158735000Y-105063653D01*
X158755862Y-105038233D01*
X158828754Y-104901860D01*
X158863194Y-104788328D01*
X158873641Y-104753888D01*
X158877989Y-104709744D01*
X158885000Y-104638561D01*
X158885000Y-104638554D01*
X158888343Y-104604615D01*
X158958923Y-104472567D01*
X159008748Y-104308316D01*
X159025572Y-104137500D01*
X159025572Y-103662500D01*
X159008748Y-103491684D01*
X158958923Y-103327433D01*
X158878012Y-103176058D01*
X158840000Y-103129740D01*
X158840000Y-102389625D01*
X158875000Y-102393072D01*
X159775000Y-102393072D01*
X159899482Y-102380812D01*
X159960000Y-102362454D01*
X160020518Y-102380812D01*
X160145000Y-102393072D01*
X161045000Y-102393072D01*
X161169482Y-102380812D01*
X161230000Y-102362454D01*
X161290518Y-102380812D01*
X161415000Y-102393072D01*
X162315000Y-102393072D01*
X162439482Y-102380812D01*
X162500000Y-102362454D01*
X162560518Y-102380812D01*
X162685000Y-102393072D01*
X163585000Y-102393072D01*
X163709482Y-102380812D01*
X163770000Y-102362454D01*
X163830518Y-102380812D01*
X163955000Y-102393072D01*
X164855000Y-102393072D01*
X164979482Y-102380812D01*
X165040000Y-102362454D01*
X165100518Y-102380812D01*
X165225000Y-102393072D01*
X165906858Y-102393072D01*
X165904774Y-102398102D01*
X165865000Y-102598061D01*
X165865000Y-102801939D01*
X165904774Y-103001898D01*
X165982795Y-103190256D01*
X166096063Y-103359774D01*
X166240226Y-103503937D01*
X166409744Y-103617205D01*
X166598102Y-103695226D01*
X166798061Y-103735000D01*
X167001939Y-103735000D01*
X167201898Y-103695226D01*
X167390256Y-103617205D01*
X167559774Y-103503937D01*
X167703937Y-103359774D01*
X167817205Y-103190256D01*
X167895226Y-103001898D01*
X167935000Y-102801939D01*
X167935000Y-102598061D01*
X167895226Y-102398102D01*
X167893142Y-102393072D01*
X168665000Y-102393072D01*
X168789482Y-102380812D01*
X168909180Y-102344502D01*
X169019494Y-102285537D01*
X169116185Y-102206185D01*
X169195537Y-102109494D01*
X169254502Y-101999180D01*
X169290812Y-101879482D01*
X169303072Y-101755000D01*
X169303072Y-99755000D01*
X169290812Y-99630518D01*
X169254502Y-99510820D01*
X169195537Y-99400506D01*
X169116185Y-99303815D01*
X169019494Y-99224463D01*
X168909180Y-99165498D01*
X168789482Y-99129188D01*
X168665000Y-99116928D01*
X167765000Y-99116928D01*
X167640518Y-99129188D01*
X167580000Y-99147546D01*
X167519482Y-99129188D01*
X167395000Y-99116928D01*
X166495000Y-99116928D01*
X166370518Y-99129188D01*
X166310000Y-99147546D01*
X166249482Y-99129188D01*
X166125000Y-99116928D01*
X165225000Y-99116928D01*
X165100518Y-99129188D01*
X165040000Y-99147546D01*
X164979482Y-99129188D01*
X164855000Y-99116928D01*
X163955000Y-99116928D01*
X163830518Y-99129188D01*
X163770000Y-99147546D01*
X163709482Y-99129188D01*
X163585000Y-99116928D01*
X162685000Y-99116928D01*
X162560518Y-99129188D01*
X162500000Y-99147546D01*
X162439482Y-99129188D01*
X162315000Y-99116928D01*
X161415000Y-99116928D01*
X161290518Y-99129188D01*
X161230000Y-99147546D01*
X161169482Y-99129188D01*
X161045000Y-99116928D01*
X160145000Y-99116928D01*
X160020518Y-99129188D01*
X159960000Y-99147546D01*
X159899482Y-99129188D01*
X159775000Y-99116928D01*
X158875000Y-99116928D01*
X158750518Y-99129188D01*
X158690000Y-99147546D01*
X158629482Y-99129188D01*
X158505000Y-99116928D01*
X157605000Y-99116928D01*
X157480518Y-99129188D01*
X157420000Y-99147546D01*
X157359482Y-99129188D01*
X157235000Y-99116928D01*
X156635011Y-99116928D01*
X156635011Y-86863565D01*
X156638808Y-86825009D01*
X156635011Y-86786453D01*
X156635011Y-86786448D01*
X156629520Y-86730694D01*
X156623653Y-86671122D01*
X156578765Y-86523149D01*
X156560181Y-86488380D01*
X156505873Y-86386776D01*
X156407775Y-86267245D01*
X156377821Y-86242662D01*
X155638072Y-85502913D01*
X155638072Y-85335000D01*
X155625812Y-85210518D01*
X155607454Y-85150000D01*
X155625812Y-85089482D01*
X155638072Y-84965000D01*
X155635000Y-84800750D01*
X155476250Y-84642000D01*
X154127000Y-84642000D01*
X154127000Y-84662000D01*
X153873000Y-84662000D01*
X153873000Y-84642000D01*
X152523750Y-84642000D01*
X152438750Y-84727000D01*
X151652000Y-84727000D01*
X151652000Y-85973000D01*
X151672000Y-85973000D01*
X151672000Y-86227000D01*
X151652000Y-86227000D01*
X151652000Y-87051250D01*
X151810750Y-87210000D01*
X152062500Y-87213072D01*
X152186982Y-87200812D01*
X152306680Y-87164502D01*
X152361928Y-87134971D01*
X152361928Y-87505000D01*
X152374188Y-87629482D01*
X152392546Y-87690000D01*
X152374188Y-87750518D01*
X152361928Y-87875000D01*
X152361928Y-88775000D01*
X152365375Y-88810000D01*
X151540158Y-88810000D01*
X149943230Y-87213072D01*
X150100000Y-87213072D01*
X150270816Y-87196248D01*
X150435067Y-87146423D01*
X150585106Y-87066226D01*
X150633006Y-87105537D01*
X150743320Y-87164502D01*
X150863018Y-87200812D01*
X150987500Y-87213072D01*
X151239250Y-87210000D01*
X151398000Y-87051250D01*
X151398000Y-86227000D01*
X151378000Y-86227000D01*
X151378000Y-85973000D01*
X151398000Y-85973000D01*
X151398000Y-84727000D01*
X151378000Y-84727000D01*
X151378000Y-84473000D01*
X151398000Y-84473000D01*
X151398000Y-84453000D01*
X151652000Y-84453000D01*
X151652000Y-84473000D01*
X152538750Y-84473000D01*
X152623750Y-84388000D01*
X153873000Y-84388000D01*
X153873000Y-84368000D01*
X154127000Y-84368000D01*
X154127000Y-84388000D01*
X155476250Y-84388000D01*
X155635000Y-84229250D01*
X155638072Y-84065000D01*
X155625812Y-83940518D01*
X155608436Y-83883237D01*
X159332126Y-87606928D01*
X159000000Y-87606928D01*
X158875518Y-87619188D01*
X158755820Y-87655498D01*
X158645506Y-87714463D01*
X158548815Y-87793815D01*
X158469463Y-87890506D01*
X158410498Y-88000820D01*
X158374188Y-88120518D01*
X158361928Y-88245000D01*
X158361928Y-93245000D01*
X158374188Y-93369482D01*
X158410498Y-93489180D01*
X158469463Y-93599494D01*
X158548815Y-93696185D01*
X158645506Y-93775537D01*
X158755820Y-93834502D01*
X158875518Y-93870812D01*
X159000000Y-93883072D01*
X164000000Y-93883072D01*
X164124482Y-93870812D01*
X164244180Y-93834502D01*
X164354494Y-93775537D01*
X164451185Y-93696185D01*
X164530537Y-93599494D01*
X164589502Y-93489180D01*
X164625812Y-93369482D01*
X164638072Y-93245000D01*
X164638072Y-88265010D01*
X168615209Y-88265010D01*
X169186201Y-88836002D01*
X169209999Y-88865001D01*
X169238997Y-88888799D01*
X169325723Y-88959974D01*
X169383230Y-88990712D01*
X169374188Y-89020518D01*
X169361928Y-89145000D01*
X169361928Y-90045000D01*
X169374188Y-90169482D01*
X169392546Y-90230000D01*
X169374188Y-90290518D01*
X169361928Y-90415000D01*
X169361928Y-91315000D01*
X169374188Y-91439482D01*
X169392546Y-91500000D01*
X169374188Y-91560518D01*
X169361928Y-91685000D01*
X169361928Y-92585000D01*
X169374188Y-92709482D01*
X169392546Y-92770000D01*
X169374188Y-92830518D01*
X169361928Y-92955000D01*
X169361928Y-93855000D01*
X169374188Y-93979482D01*
X169392546Y-94040000D01*
X169374188Y-94100518D01*
X169361928Y-94225000D01*
X169361928Y-95125000D01*
X169374188Y-95249482D01*
X169392546Y-95310000D01*
X169374188Y-95370518D01*
X169361928Y-95495000D01*
X169361928Y-96395000D01*
X169374188Y-96519482D01*
X169392546Y-96580000D01*
X169374188Y-96640518D01*
X169361928Y-96765000D01*
X169361928Y-97665000D01*
X169374188Y-97789482D01*
X169392546Y-97850000D01*
X169374188Y-97910518D01*
X169361928Y-98035000D01*
X169361928Y-98935000D01*
X169374188Y-99059482D01*
X169392546Y-99120000D01*
X169374188Y-99180518D01*
X169361928Y-99305000D01*
X169361928Y-100205000D01*
X169374188Y-100329482D01*
X169410498Y-100449180D01*
X169469463Y-100559494D01*
X169548815Y-100656185D01*
X169645506Y-100735537D01*
X169755820Y-100794502D01*
X169875518Y-100830812D01*
X170000000Y-100843072D01*
X172000000Y-100843072D01*
X172124482Y-100830812D01*
X172244180Y-100794502D01*
X172354494Y-100735537D01*
X172451185Y-100656185D01*
X172530537Y-100559494D01*
X172589502Y-100449180D01*
X172625812Y-100329482D01*
X172638072Y-100205000D01*
X172638072Y-99305000D01*
X172625812Y-99180518D01*
X172607454Y-99120000D01*
X172625812Y-99059482D01*
X172638072Y-98935000D01*
X172638072Y-98035000D01*
X172625812Y-97910518D01*
X172607454Y-97850000D01*
X172625812Y-97789482D01*
X172638072Y-97665000D01*
X172638072Y-96765000D01*
X172625812Y-96640518D01*
X172607454Y-96580000D01*
X172625812Y-96519482D01*
X172638072Y-96395000D01*
X172638072Y-95495000D01*
X172625812Y-95370518D01*
X172607454Y-95310000D01*
X172625812Y-95249482D01*
X172638072Y-95125000D01*
X172638072Y-94225000D01*
X172625812Y-94100518D01*
X172607454Y-94040000D01*
X172625812Y-93979482D01*
X172638072Y-93855000D01*
X172638072Y-92955000D01*
X172625812Y-92830518D01*
X172607454Y-92770000D01*
X172625812Y-92709482D01*
X172638072Y-92585000D01*
X172638072Y-91685000D01*
X172625812Y-91560518D01*
X172607454Y-91500000D01*
X172625812Y-91439482D01*
X172638072Y-91315000D01*
X172638072Y-90415000D01*
X172625812Y-90290518D01*
X172607454Y-90230000D01*
X172625812Y-90169482D01*
X172638072Y-90045000D01*
X172638072Y-89145000D01*
X172625812Y-89020518D01*
X172607454Y-88960000D01*
X172625812Y-88899482D01*
X172638072Y-88775000D01*
X172638072Y-87875000D01*
X172625812Y-87750518D01*
X172607454Y-87690000D01*
X172625812Y-87629482D01*
X172638072Y-87505000D01*
X172638072Y-86605000D01*
X172625812Y-86480518D01*
X172607454Y-86420000D01*
X172625812Y-86359482D01*
X172638072Y-86235000D01*
X172638072Y-85335000D01*
X172625812Y-85210518D01*
X172607454Y-85150000D01*
X172625812Y-85089482D01*
X172638072Y-84965000D01*
X172638072Y-84065000D01*
X172625812Y-83940518D01*
X172607454Y-83880000D01*
X172625812Y-83819482D01*
X172638072Y-83695000D01*
X172638072Y-82795000D01*
X172625812Y-82670518D01*
X172589502Y-82550820D01*
X172530537Y-82440506D01*
X172451185Y-82343815D01*
X172354494Y-82264463D01*
X172244180Y-82205498D01*
X172124482Y-82169188D01*
X172000000Y-82156928D01*
X170000000Y-82156928D01*
X169875518Y-82169188D01*
X169755820Y-82205498D01*
X169733041Y-82217674D01*
X169701898Y-82204774D01*
X169501939Y-82165000D01*
X169298061Y-82165000D01*
X169098102Y-82204774D01*
X168909744Y-82282795D01*
X168740226Y-82396063D01*
X168596063Y-82540226D01*
X168482795Y-82709744D01*
X168404774Y-82898102D01*
X168365000Y-83098061D01*
X168365000Y-83301939D01*
X168404774Y-83501898D01*
X168482795Y-83690256D01*
X168596063Y-83859774D01*
X168740226Y-84003937D01*
X168909744Y-84117205D01*
X169018475Y-84162243D01*
X169056620Y-84182632D01*
X169098007Y-84195187D01*
X169098102Y-84195226D01*
X169098203Y-84195246D01*
X169152184Y-84211621D01*
X169247006Y-84240385D01*
X169361928Y-84251704D01*
X169361928Y-84965000D01*
X169374188Y-85089482D01*
X169392546Y-85150000D01*
X169374188Y-85210518D01*
X169361928Y-85335000D01*
X169361928Y-86235000D01*
X169367837Y-86295000D01*
X160869803Y-86295000D01*
X156301801Y-81727000D01*
X172815000Y-81727000D01*
X172815001Y-103716262D01*
G37*
%TD.AperFunction*%
D25*
X136667000Y-75373000D02*
X136687000Y-75373000D01*
X136687000Y-75627000D01*
X136667000Y-75627000D01*
X136667000Y-76820155D01*
X136896890Y-76941476D01*
X137044099Y-76896825D01*
X137306920Y-76771641D01*
X137540269Y-76597588D01*
X137735178Y-76381355D01*
X137804805Y-76264466D01*
X137926525Y-76446632D01*
X138133368Y-76653475D01*
X138376589Y-76815990D01*
X138646842Y-76927932D01*
X138933740Y-76985000D01*
X139226260Y-76985000D01*
X139513158Y-76927932D01*
X139783411Y-76815990D01*
X140026632Y-76653475D01*
X140233475Y-76446632D01*
X140350000Y-76272240D01*
X140466525Y-76446632D01*
X140673368Y-76653475D01*
X140916589Y-76815990D01*
X141186842Y-76927932D01*
X141473740Y-76985000D01*
X141530199Y-76985000D01*
X142440001Y-77894803D01*
X142440001Y-78261913D01*
X142323411Y-78184010D01*
X142053158Y-78072068D01*
X141766260Y-78015000D01*
X141473740Y-78015000D01*
X141186842Y-78072068D01*
X140916589Y-78184010D01*
X140673368Y-78346525D01*
X140466525Y-78553368D01*
X140350000Y-78727760D01*
X140233475Y-78553368D01*
X140026632Y-78346525D01*
X139783411Y-78184010D01*
X139513158Y-78072068D01*
X139226260Y-78015000D01*
X138933740Y-78015000D01*
X138646842Y-78072068D01*
X138376589Y-78184010D01*
X138133368Y-78346525D01*
X137926525Y-78553368D01*
X137810000Y-78727760D01*
X137693475Y-78553368D01*
X137486632Y-78346525D01*
X137243411Y-78184010D01*
X136973158Y-78072068D01*
X136686260Y-78015000D01*
X136393740Y-78015000D01*
X136106842Y-78072068D01*
X135836589Y-78184010D01*
X135593368Y-78346525D01*
X135461513Y-78478380D01*
X135439502Y-78405820D01*
X135380537Y-78295506D01*
X135301185Y-78198815D01*
X135204494Y-78119463D01*
X135094180Y-78060498D01*
X134974482Y-78024188D01*
X134850000Y-78011928D01*
X133150000Y-78011928D01*
X133025518Y-78024188D01*
X132905820Y-78060498D01*
X132795506Y-78119463D01*
X132698815Y-78198815D01*
X132619463Y-78295506D01*
X132560498Y-78405820D01*
X132524188Y-78525518D01*
X132511928Y-78650000D01*
X132511928Y-80350000D01*
X132524188Y-80474482D01*
X132560498Y-80594180D01*
X132619463Y-80704494D01*
X132698815Y-80801185D01*
X132715001Y-80814468D01*
X132715001Y-81296440D01*
X132711203Y-81335002D01*
X132726359Y-81488888D01*
X132771246Y-81636861D01*
X132788206Y-81668590D01*
X132844139Y-81773235D01*
X132875313Y-81811220D01*
X132917655Y-81862814D01*
X132917659Y-81862818D01*
X132942237Y-81892766D01*
X132972185Y-81917344D01*
X148797651Y-97742810D01*
X148822234Y-97772764D01*
X148941765Y-97870862D01*
X149078138Y-97943754D01*
X149226111Y-97988642D01*
X149301024Y-97996020D01*
X149341437Y-98000000D01*
X149341442Y-98000000D01*
X149379998Y-98003797D01*
X149418554Y-98000000D01*
X152365375Y-98000000D01*
X152361928Y-98035000D01*
X152361928Y-98935000D01*
X152374188Y-99059482D01*
X152392546Y-99120000D01*
X152374188Y-99180518D01*
X152361928Y-99305000D01*
X152361928Y-99770001D01*
X130072407Y-99770001D01*
X130015512Y-99663558D01*
X129906623Y-99530877D01*
X129773942Y-99421988D01*
X129622567Y-99341077D01*
X129458316Y-99291252D01*
X129287500Y-99274428D01*
X128812500Y-99274428D01*
X128641684Y-99291252D01*
X128477433Y-99341077D01*
X128326058Y-99421988D01*
X128193377Y-99530877D01*
X128185259Y-99540769D01*
X128156623Y-99505877D01*
X128023942Y-99396988D01*
X127872567Y-99316077D01*
X127708316Y-99266252D01*
X127537500Y-99249428D01*
X127062500Y-99249428D01*
X126891684Y-99266252D01*
X126727433Y-99316077D01*
X126576058Y-99396988D01*
X126443377Y-99505877D01*
X126334488Y-99638558D01*
X126253577Y-99789933D01*
X126203752Y-99954184D01*
X126186928Y-100125000D01*
X126186928Y-100625000D01*
X126203752Y-100795816D01*
X126253577Y-100960067D01*
X126334488Y-101111442D01*
X126443377Y-101244123D01*
X126496232Y-101287500D01*
X126443377Y-101330877D01*
X126334488Y-101463558D01*
X126253577Y-101614933D01*
X126203752Y-101779184D01*
X126186928Y-101950000D01*
X126186928Y-102268802D01*
X126171246Y-102298141D01*
X126126359Y-102446114D01*
X126111203Y-102600000D01*
X126115001Y-102638563D01*
X126115000Y-103940000D01*
X125017324Y-103940000D01*
X124972567Y-103916077D01*
X124808316Y-103866252D01*
X124654453Y-103851098D01*
X122725601Y-101922246D01*
X122789721Y-101935000D01*
X123210279Y-101935000D01*
X123622756Y-101852953D01*
X124011302Y-101692012D01*
X124360983Y-101458363D01*
X124658363Y-101160983D01*
X124892012Y-100811302D01*
X125052953Y-100422756D01*
X125135000Y-100010279D01*
X125135000Y-99589721D01*
X125052953Y-99177244D01*
X124892012Y-98788698D01*
X124658363Y-98439017D01*
X124360983Y-98141637D01*
X124011302Y-97907988D01*
X123622756Y-97747047D01*
X123210279Y-97665000D01*
X122789721Y-97665000D01*
X122377244Y-97747047D01*
X121988698Y-97907988D01*
X121734999Y-98077504D01*
X121734999Y-79838072D01*
X123700000Y-79838072D01*
X123824482Y-79825812D01*
X123944180Y-79789502D01*
X124054494Y-79730537D01*
X124151185Y-79651185D01*
X124230537Y-79554494D01*
X124289502Y-79444180D01*
X124325812Y-79324482D01*
X124338072Y-79200000D01*
X124338072Y-78782838D01*
X124373844Y-78869199D01*
X124574662Y-79169744D01*
X124830256Y-79425338D01*
X125130801Y-79626156D01*
X125464750Y-79764482D01*
X125819268Y-79835000D01*
X126180732Y-79835000D01*
X126535250Y-79764482D01*
X126869199Y-79626156D01*
X127169744Y-79425338D01*
X127425338Y-79169744D01*
X127626156Y-78869199D01*
X127750000Y-78570213D01*
X127873844Y-78869199D01*
X128074662Y-79169744D01*
X128330256Y-79425338D01*
X128630801Y-79626156D01*
X128964750Y-79764482D01*
X129319268Y-79835000D01*
X129680732Y-79835000D01*
X130035250Y-79764482D01*
X130369199Y-79626156D01*
X130669744Y-79425338D01*
X130925338Y-79169744D01*
X131126156Y-78869199D01*
X131264482Y-78535250D01*
X131335000Y-78180732D01*
X131335000Y-77819268D01*
X131264482Y-77464750D01*
X131126156Y-77130801D01*
X130925338Y-76830256D01*
X130669744Y-76574662D01*
X130572971Y-76510000D01*
X132534962Y-76510000D01*
X132560498Y-76594180D01*
X132619463Y-76704494D01*
X132698815Y-76801185D01*
X132795506Y-76880537D01*
X132905820Y-76939502D01*
X133025518Y-76975812D01*
X133150000Y-76988072D01*
X134850000Y-76988072D01*
X134974482Y-76975812D01*
X135094180Y-76939502D01*
X135204494Y-76880537D01*
X135301185Y-76801185D01*
X135380537Y-76704494D01*
X135439502Y-76594180D01*
X135463966Y-76513534D01*
X135539731Y-76597588D01*
X135773080Y-76771641D01*
X136035901Y-76896825D01*
X136183110Y-76941476D01*
X136413000Y-76820155D01*
X136413000Y-75627000D01*
X136393000Y-75627000D01*
X136393000Y-75373000D01*
X136413000Y-75373000D01*
X136413000Y-75353000D01*
X136667000Y-75353000D01*
X136667000Y-75373000D01*
%TA.AperFunction,Conductor*%
D26*
G36*
X136667000Y-75373000D02*
G01*
X136687000Y-75373000D01*
X136687000Y-75627000D01*
X136667000Y-75627000D01*
X136667000Y-76820155D01*
X136896890Y-76941476D01*
X137044099Y-76896825D01*
X137306920Y-76771641D01*
X137540269Y-76597588D01*
X137735178Y-76381355D01*
X137804805Y-76264466D01*
X137926525Y-76446632D01*
X138133368Y-76653475D01*
X138376589Y-76815990D01*
X138646842Y-76927932D01*
X138933740Y-76985000D01*
X139226260Y-76985000D01*
X139513158Y-76927932D01*
X139783411Y-76815990D01*
X140026632Y-76653475D01*
X140233475Y-76446632D01*
X140350000Y-76272240D01*
X140466525Y-76446632D01*
X140673368Y-76653475D01*
X140916589Y-76815990D01*
X141186842Y-76927932D01*
X141473740Y-76985000D01*
X141530199Y-76985000D01*
X142440001Y-77894803D01*
X142440001Y-78261913D01*
X142323411Y-78184010D01*
X142053158Y-78072068D01*
X141766260Y-78015000D01*
X141473740Y-78015000D01*
X141186842Y-78072068D01*
X140916589Y-78184010D01*
X140673368Y-78346525D01*
X140466525Y-78553368D01*
X140350000Y-78727760D01*
X140233475Y-78553368D01*
X140026632Y-78346525D01*
X139783411Y-78184010D01*
X139513158Y-78072068D01*
X139226260Y-78015000D01*
X138933740Y-78015000D01*
X138646842Y-78072068D01*
X138376589Y-78184010D01*
X138133368Y-78346525D01*
X137926525Y-78553368D01*
X137810000Y-78727760D01*
X137693475Y-78553368D01*
X137486632Y-78346525D01*
X137243411Y-78184010D01*
X136973158Y-78072068D01*
X136686260Y-78015000D01*
X136393740Y-78015000D01*
X136106842Y-78072068D01*
X135836589Y-78184010D01*
X135593368Y-78346525D01*
X135461513Y-78478380D01*
X135439502Y-78405820D01*
X135380537Y-78295506D01*
X135301185Y-78198815D01*
X135204494Y-78119463D01*
X135094180Y-78060498D01*
X134974482Y-78024188D01*
X134850000Y-78011928D01*
X133150000Y-78011928D01*
X133025518Y-78024188D01*
X132905820Y-78060498D01*
X132795506Y-78119463D01*
X132698815Y-78198815D01*
X132619463Y-78295506D01*
X132560498Y-78405820D01*
X132524188Y-78525518D01*
X132511928Y-78650000D01*
X132511928Y-80350000D01*
X132524188Y-80474482D01*
X132560498Y-80594180D01*
X132619463Y-80704494D01*
X132698815Y-80801185D01*
X132715001Y-80814468D01*
X132715001Y-81296440D01*
X132711203Y-81335002D01*
X132726359Y-81488888D01*
X132771246Y-81636861D01*
X132788206Y-81668590D01*
X132844139Y-81773235D01*
X132875313Y-81811220D01*
X132917655Y-81862814D01*
X132917659Y-81862818D01*
X132942237Y-81892766D01*
X132972185Y-81917344D01*
X148797651Y-97742810D01*
X148822234Y-97772764D01*
X148941765Y-97870862D01*
X149078138Y-97943754D01*
X149226111Y-97988642D01*
X149301024Y-97996020D01*
X149341437Y-98000000D01*
X149341442Y-98000000D01*
X149379998Y-98003797D01*
X149418554Y-98000000D01*
X152365375Y-98000000D01*
X152361928Y-98035000D01*
X152361928Y-98935000D01*
X152374188Y-99059482D01*
X152392546Y-99120000D01*
X152374188Y-99180518D01*
X152361928Y-99305000D01*
X152361928Y-99770001D01*
X130072407Y-99770001D01*
X130015512Y-99663558D01*
X129906623Y-99530877D01*
X129773942Y-99421988D01*
X129622567Y-99341077D01*
X129458316Y-99291252D01*
X129287500Y-99274428D01*
X128812500Y-99274428D01*
X128641684Y-99291252D01*
X128477433Y-99341077D01*
X128326058Y-99421988D01*
X128193377Y-99530877D01*
X128185259Y-99540769D01*
X128156623Y-99505877D01*
X128023942Y-99396988D01*
X127872567Y-99316077D01*
X127708316Y-99266252D01*
X127537500Y-99249428D01*
X127062500Y-99249428D01*
X126891684Y-99266252D01*
X126727433Y-99316077D01*
X126576058Y-99396988D01*
X126443377Y-99505877D01*
X126334488Y-99638558D01*
X126253577Y-99789933D01*
X126203752Y-99954184D01*
X126186928Y-100125000D01*
X126186928Y-100625000D01*
X126203752Y-100795816D01*
X126253577Y-100960067D01*
X126334488Y-101111442D01*
X126443377Y-101244123D01*
X126496232Y-101287500D01*
X126443377Y-101330877D01*
X126334488Y-101463558D01*
X126253577Y-101614933D01*
X126203752Y-101779184D01*
X126186928Y-101950000D01*
X126186928Y-102268802D01*
X126171246Y-102298141D01*
X126126359Y-102446114D01*
X126111203Y-102600000D01*
X126115001Y-102638563D01*
X126115000Y-103940000D01*
X125017324Y-103940000D01*
X124972567Y-103916077D01*
X124808316Y-103866252D01*
X124654453Y-103851098D01*
X122725601Y-101922246D01*
X122789721Y-101935000D01*
X123210279Y-101935000D01*
X123622756Y-101852953D01*
X124011302Y-101692012D01*
X124360983Y-101458363D01*
X124658363Y-101160983D01*
X124892012Y-100811302D01*
X125052953Y-100422756D01*
X125135000Y-100010279D01*
X125135000Y-99589721D01*
X125052953Y-99177244D01*
X124892012Y-98788698D01*
X124658363Y-98439017D01*
X124360983Y-98141637D01*
X124011302Y-97907988D01*
X123622756Y-97747047D01*
X123210279Y-97665000D01*
X122789721Y-97665000D01*
X122377244Y-97747047D01*
X121988698Y-97907988D01*
X121734999Y-98077504D01*
X121734999Y-79838072D01*
X123700000Y-79838072D01*
X123824482Y-79825812D01*
X123944180Y-79789502D01*
X124054494Y-79730537D01*
X124151185Y-79651185D01*
X124230537Y-79554494D01*
X124289502Y-79444180D01*
X124325812Y-79324482D01*
X124338072Y-79200000D01*
X124338072Y-78782838D01*
X124373844Y-78869199D01*
X124574662Y-79169744D01*
X124830256Y-79425338D01*
X125130801Y-79626156D01*
X125464750Y-79764482D01*
X125819268Y-79835000D01*
X126180732Y-79835000D01*
X126535250Y-79764482D01*
X126869199Y-79626156D01*
X127169744Y-79425338D01*
X127425338Y-79169744D01*
X127626156Y-78869199D01*
X127750000Y-78570213D01*
X127873844Y-78869199D01*
X128074662Y-79169744D01*
X128330256Y-79425338D01*
X128630801Y-79626156D01*
X128964750Y-79764482D01*
X129319268Y-79835000D01*
X129680732Y-79835000D01*
X130035250Y-79764482D01*
X130369199Y-79626156D01*
X130669744Y-79425338D01*
X130925338Y-79169744D01*
X131126156Y-78869199D01*
X131264482Y-78535250D01*
X131335000Y-78180732D01*
X131335000Y-77819268D01*
X131264482Y-77464750D01*
X131126156Y-77130801D01*
X130925338Y-76830256D01*
X130669744Y-76574662D01*
X130572971Y-76510000D01*
X132534962Y-76510000D01*
X132560498Y-76594180D01*
X132619463Y-76704494D01*
X132698815Y-76801185D01*
X132795506Y-76880537D01*
X132905820Y-76939502D01*
X133025518Y-76975812D01*
X133150000Y-76988072D01*
X134850000Y-76988072D01*
X134974482Y-76975812D01*
X135094180Y-76939502D01*
X135204494Y-76880537D01*
X135301185Y-76801185D01*
X135380537Y-76704494D01*
X135439502Y-76594180D01*
X135463966Y-76513534D01*
X135539731Y-76597588D01*
X135773080Y-76771641D01*
X136035901Y-76896825D01*
X136183110Y-76941476D01*
X136413000Y-76820155D01*
X136413000Y-75627000D01*
X136393000Y-75627000D01*
X136393000Y-75373000D01*
X136413000Y-75373000D01*
X136413000Y-75353000D01*
X136667000Y-75353000D01*
X136667000Y-75373000D01*
G37*
%TD.AperFunction*%
%TD*%
M02*
