%TF.GenerationSoftware,KiCad,Pcbnew,5.1.10*%
%TF.CreationDate,2021-06-08T01:23:06+10:00*%
%TF.ProjectId,mail-to-telegram,6d61696c-2d74-46f2-9d74-656c65677261,v1.0*%
%TF.SameCoordinates,Original*%
%TF.FileFunction,Soldermask,Top*%
%TF.FilePolarity,Negative*%
%FSLAX46Y46*%
G04 Gerber Fmt 4.6, Leading zero omitted, Abs format (unit mm)*
G04 Created by KiCad (PCBNEW 5.1.10) date 2021-06-08 01:23:06*
%MOMM*%
%LPD*%
G01*
G04 APERTURE LIST*
%ADD10C,3.450000*%
%ADD11C,3.000000*%
%ADD12R,3.000000X3.000000*%
%ADD13R,2.180000X1.600000*%
%ADD14R,1.060000X0.650000*%
%ADD15O,1.700000X1.700000*%
%ADD16R,1.700000X1.700000*%
%ADD17R,2.000000X0.900000*%
%ADD18R,0.900000X2.000000*%
%ADD19R,5.000000X5.000000*%
%ADD20C,2.400000*%
%ADD21R,2.400000X2.400000*%
G04 APERTURE END LIST*
D10*
%TO.C,BT1*%
X146720000Y-89000000D03*
X146720000Y-112500000D03*
D11*
X123000000Y-99800000D03*
D12*
X123000000Y-112500000D03*
%TD*%
%TO.C,R3*%
G36*
G01*
X148375000Y-101862500D02*
X148375000Y-102337500D01*
G75*
G02*
X148137500Y-102575000I-237500J0D01*
G01*
X147637500Y-102575000D01*
G75*
G02*
X147400000Y-102337500I0J237500D01*
G01*
X147400000Y-101862500D01*
G75*
G02*
X147637500Y-101625000I237500J0D01*
G01*
X148137500Y-101625000D01*
G75*
G02*
X148375000Y-101862500I0J-237500D01*
G01*
G37*
G36*
G01*
X150200000Y-101862500D02*
X150200000Y-102337500D01*
G75*
G02*
X149962500Y-102575000I-237500J0D01*
G01*
X149462500Y-102575000D01*
G75*
G02*
X149225000Y-102337500I0J237500D01*
G01*
X149225000Y-101862500D01*
G75*
G02*
X149462500Y-101625000I237500J0D01*
G01*
X149962500Y-101625000D01*
G75*
G02*
X150200000Y-101862500I0J-237500D01*
G01*
G37*
%TD*%
D13*
%TO.C,SW1*%
X140410000Y-107000000D03*
X149590000Y-107000000D03*
%TD*%
%TO.C,C6*%
G36*
G01*
X148512500Y-103662500D02*
X148512500Y-104137500D01*
G75*
G02*
X148275000Y-104375000I-237500J0D01*
G01*
X147675000Y-104375000D01*
G75*
G02*
X147437500Y-104137500I0J237500D01*
G01*
X147437500Y-103662500D01*
G75*
G02*
X147675000Y-103425000I237500J0D01*
G01*
X148275000Y-103425000D01*
G75*
G02*
X148512500Y-103662500I0J-237500D01*
G01*
G37*
G36*
G01*
X150237500Y-103662500D02*
X150237500Y-104137500D01*
G75*
G02*
X150000000Y-104375000I-237500J0D01*
G01*
X149400000Y-104375000D01*
G75*
G02*
X149162500Y-104137500I0J237500D01*
G01*
X149162500Y-103662500D01*
G75*
G02*
X149400000Y-103425000I237500J0D01*
G01*
X150000000Y-103425000D01*
G75*
G02*
X150237500Y-103662500I0J-237500D01*
G01*
G37*
%TD*%
D14*
%TO.C,U1*%
X129100000Y-104950000D03*
X129100000Y-106850000D03*
X126900000Y-106850000D03*
X126900000Y-105900000D03*
X126900000Y-104950000D03*
%TD*%
D15*
%TO.C,J2*%
X141620000Y-79500000D03*
X139080000Y-79500000D03*
X136540000Y-79500000D03*
D16*
X134000000Y-79500000D03*
%TD*%
D15*
%TO.C,J1*%
X144160000Y-75500000D03*
X141620000Y-75500000D03*
X139080000Y-75500000D03*
X136540000Y-75500000D03*
D16*
X134000000Y-75500000D03*
%TD*%
D17*
%TO.C,U2*%
X171000000Y-83245000D03*
X171000000Y-84515000D03*
X171000000Y-85785000D03*
X171000000Y-87055000D03*
X171000000Y-88325000D03*
X171000000Y-89595000D03*
X171000000Y-90865000D03*
X171000000Y-92135000D03*
X171000000Y-93405000D03*
X171000000Y-94675000D03*
X171000000Y-95945000D03*
X171000000Y-97215000D03*
X171000000Y-98485000D03*
X171000000Y-99755000D03*
D18*
X168215000Y-100755000D03*
X166945000Y-100755000D03*
X165675000Y-100755000D03*
X164405000Y-100755000D03*
X163135000Y-100755000D03*
X161865000Y-100755000D03*
X160595000Y-100755000D03*
X159325000Y-100755000D03*
X158055000Y-100755000D03*
X156785000Y-100755000D03*
D17*
X154000000Y-99755000D03*
X154000000Y-98485000D03*
X154000000Y-97215000D03*
X154000000Y-95945000D03*
X154000000Y-94675000D03*
X154000000Y-93405000D03*
X154000000Y-92135000D03*
X154000000Y-90865000D03*
X154000000Y-89595000D03*
X154000000Y-88325000D03*
X154000000Y-87055000D03*
X154000000Y-85785000D03*
X154000000Y-84515000D03*
X154000000Y-83245000D03*
D19*
X161500000Y-90745000D03*
%TD*%
%TO.C,R5*%
G36*
G01*
X151237500Y-96137500D02*
X151237500Y-95662500D01*
G75*
G02*
X151475000Y-95425000I237500J0D01*
G01*
X151975000Y-95425000D01*
G75*
G02*
X152212500Y-95662500I0J-237500D01*
G01*
X152212500Y-96137500D01*
G75*
G02*
X151975000Y-96375000I-237500J0D01*
G01*
X151475000Y-96375000D01*
G75*
G02*
X151237500Y-96137500I0J237500D01*
G01*
G37*
G36*
G01*
X149412500Y-96137500D02*
X149412500Y-95662500D01*
G75*
G02*
X149650000Y-95425000I237500J0D01*
G01*
X150150000Y-95425000D01*
G75*
G02*
X150387500Y-95662500I0J-237500D01*
G01*
X150387500Y-96137500D01*
G75*
G02*
X150150000Y-96375000I-237500J0D01*
G01*
X149650000Y-96375000D01*
G75*
G02*
X149412500Y-96137500I0J237500D01*
G01*
G37*
%TD*%
%TO.C,R4*%
G36*
G01*
X157412500Y-104137500D02*
X157412500Y-103662500D01*
G75*
G02*
X157650000Y-103425000I237500J0D01*
G01*
X158150000Y-103425000D01*
G75*
G02*
X158387500Y-103662500I0J-237500D01*
G01*
X158387500Y-104137500D01*
G75*
G02*
X158150000Y-104375000I-237500J0D01*
G01*
X157650000Y-104375000D01*
G75*
G02*
X157412500Y-104137500I0J237500D01*
G01*
G37*
G36*
G01*
X155587500Y-104137500D02*
X155587500Y-103662500D01*
G75*
G02*
X155825000Y-103425000I237500J0D01*
G01*
X156325000Y-103425000D01*
G75*
G02*
X156562500Y-103662500I0J-237500D01*
G01*
X156562500Y-104137500D01*
G75*
G02*
X156325000Y-104375000I-237500J0D01*
G01*
X155825000Y-104375000D01*
G75*
G02*
X155587500Y-104137500I0J237500D01*
G01*
G37*
%TD*%
%TO.C,R2*%
G36*
G01*
X128812500Y-101737500D02*
X129287500Y-101737500D01*
G75*
G02*
X129525000Y-101975000I0J-237500D01*
G01*
X129525000Y-102475000D01*
G75*
G02*
X129287500Y-102712500I-237500J0D01*
G01*
X128812500Y-102712500D01*
G75*
G02*
X128575000Y-102475000I0J237500D01*
G01*
X128575000Y-101975000D01*
G75*
G02*
X128812500Y-101737500I237500J0D01*
G01*
G37*
G36*
G01*
X128812500Y-99912500D02*
X129287500Y-99912500D01*
G75*
G02*
X129525000Y-100150000I0J-237500D01*
G01*
X129525000Y-100650000D01*
G75*
G02*
X129287500Y-100887500I-237500J0D01*
G01*
X128812500Y-100887500D01*
G75*
G02*
X128575000Y-100650000I0J237500D01*
G01*
X128575000Y-100150000D01*
G75*
G02*
X128812500Y-99912500I237500J0D01*
G01*
G37*
%TD*%
%TO.C,R1*%
G36*
G01*
X127537500Y-100862500D02*
X127062500Y-100862500D01*
G75*
G02*
X126825000Y-100625000I0J237500D01*
G01*
X126825000Y-100125000D01*
G75*
G02*
X127062500Y-99887500I237500J0D01*
G01*
X127537500Y-99887500D01*
G75*
G02*
X127775000Y-100125000I0J-237500D01*
G01*
X127775000Y-100625000D01*
G75*
G02*
X127537500Y-100862500I-237500J0D01*
G01*
G37*
G36*
G01*
X127537500Y-102687500D02*
X127062500Y-102687500D01*
G75*
G02*
X126825000Y-102450000I0J237500D01*
G01*
X126825000Y-101950000D01*
G75*
G02*
X127062500Y-101712500I237500J0D01*
G01*
X127537500Y-101712500D01*
G75*
G02*
X127775000Y-101950000I0J-237500D01*
G01*
X127775000Y-102450000D01*
G75*
G02*
X127537500Y-102687500I-237500J0D01*
G01*
G37*
%TD*%
D20*
%TO.C,J3*%
X129500000Y-78000000D03*
X126000000Y-78000000D03*
D21*
X122500000Y-78000000D03*
%TD*%
%TO.C,D1*%
G36*
G01*
X150375000Y-93962500D02*
X150375000Y-94437500D01*
G75*
G02*
X150137500Y-94675000I-237500J0D01*
G01*
X149562500Y-94675000D01*
G75*
G02*
X149325000Y-94437500I0J237500D01*
G01*
X149325000Y-93962500D01*
G75*
G02*
X149562500Y-93725000I237500J0D01*
G01*
X150137500Y-93725000D01*
G75*
G02*
X150375000Y-93962500I0J-237500D01*
G01*
G37*
G36*
G01*
X152125000Y-93962500D02*
X152125000Y-94437500D01*
G75*
G02*
X151887500Y-94675000I-237500J0D01*
G01*
X151312500Y-94675000D01*
G75*
G02*
X151075000Y-94437500I0J237500D01*
G01*
X151075000Y-93962500D01*
G75*
G02*
X151312500Y-93725000I237500J0D01*
G01*
X151887500Y-93725000D01*
G75*
G02*
X152125000Y-93962500I0J-237500D01*
G01*
G37*
%TD*%
%TO.C,C5*%
G36*
G01*
X150337500Y-84362500D02*
X150337500Y-84837500D01*
G75*
G02*
X150100000Y-85075000I-237500J0D01*
G01*
X149500000Y-85075000D01*
G75*
G02*
X149262500Y-84837500I0J237500D01*
G01*
X149262500Y-84362500D01*
G75*
G02*
X149500000Y-84125000I237500J0D01*
G01*
X150100000Y-84125000D01*
G75*
G02*
X150337500Y-84362500I0J-237500D01*
G01*
G37*
G36*
G01*
X152062500Y-84362500D02*
X152062500Y-84837500D01*
G75*
G02*
X151825000Y-85075000I-237500J0D01*
G01*
X151225000Y-85075000D01*
G75*
G02*
X150987500Y-84837500I0J237500D01*
G01*
X150987500Y-84362500D01*
G75*
G02*
X151225000Y-84125000I237500J0D01*
G01*
X151825000Y-84125000D01*
G75*
G02*
X152062500Y-84362500I0J-237500D01*
G01*
G37*
%TD*%
%TO.C,C4*%
G36*
G01*
X150337500Y-85862500D02*
X150337500Y-86337500D01*
G75*
G02*
X150100000Y-86575000I-237500J0D01*
G01*
X149500000Y-86575000D01*
G75*
G02*
X149262500Y-86337500I0J237500D01*
G01*
X149262500Y-85862500D01*
G75*
G02*
X149500000Y-85625000I237500J0D01*
G01*
X150100000Y-85625000D01*
G75*
G02*
X150337500Y-85862500I0J-237500D01*
G01*
G37*
G36*
G01*
X152062500Y-85862500D02*
X152062500Y-86337500D01*
G75*
G02*
X151825000Y-86575000I-237500J0D01*
G01*
X151225000Y-86575000D01*
G75*
G02*
X150987500Y-86337500I0J237500D01*
G01*
X150987500Y-85862500D01*
G75*
G02*
X151225000Y-85625000I237500J0D01*
G01*
X151825000Y-85625000D01*
G75*
G02*
X152062500Y-85862500I0J-237500D01*
G01*
G37*
%TD*%
%TO.C,C3*%
G36*
G01*
X132187500Y-105237500D02*
X132187500Y-104762500D01*
G75*
G02*
X132425000Y-104525000I237500J0D01*
G01*
X133025000Y-104525000D01*
G75*
G02*
X133262500Y-104762500I0J-237500D01*
G01*
X133262500Y-105237500D01*
G75*
G02*
X133025000Y-105475000I-237500J0D01*
G01*
X132425000Y-105475000D01*
G75*
G02*
X132187500Y-105237500I0J237500D01*
G01*
G37*
G36*
G01*
X130462500Y-105237500D02*
X130462500Y-104762500D01*
G75*
G02*
X130700000Y-104525000I237500J0D01*
G01*
X131300000Y-104525000D01*
G75*
G02*
X131537500Y-104762500I0J-237500D01*
G01*
X131537500Y-105237500D01*
G75*
G02*
X131300000Y-105475000I-237500J0D01*
G01*
X130700000Y-105475000D01*
G75*
G02*
X130462500Y-105237500I0J237500D01*
G01*
G37*
%TD*%
%TO.C,C2*%
G36*
G01*
X132187500Y-107037500D02*
X132187500Y-106562500D01*
G75*
G02*
X132425000Y-106325000I237500J0D01*
G01*
X133025000Y-106325000D01*
G75*
G02*
X133262500Y-106562500I0J-237500D01*
G01*
X133262500Y-107037500D01*
G75*
G02*
X133025000Y-107275000I-237500J0D01*
G01*
X132425000Y-107275000D01*
G75*
G02*
X132187500Y-107037500I0J237500D01*
G01*
G37*
G36*
G01*
X130462500Y-107037500D02*
X130462500Y-106562500D01*
G75*
G02*
X130700000Y-106325000I237500J0D01*
G01*
X131300000Y-106325000D01*
G75*
G02*
X131537500Y-106562500I0J-237500D01*
G01*
X131537500Y-107037500D01*
G75*
G02*
X131300000Y-107275000I-237500J0D01*
G01*
X130700000Y-107275000D01*
G75*
G02*
X130462500Y-107037500I0J237500D01*
G01*
G37*
%TD*%
%TO.C,C1*%
G36*
G01*
X124162500Y-106212500D02*
X124637500Y-106212500D01*
G75*
G02*
X124875000Y-106450000I0J-237500D01*
G01*
X124875000Y-107050000D01*
G75*
G02*
X124637500Y-107287500I-237500J0D01*
G01*
X124162500Y-107287500D01*
G75*
G02*
X123925000Y-107050000I0J237500D01*
G01*
X123925000Y-106450000D01*
G75*
G02*
X124162500Y-106212500I237500J0D01*
G01*
G37*
G36*
G01*
X124162500Y-104487500D02*
X124637500Y-104487500D01*
G75*
G02*
X124875000Y-104725000I0J-237500D01*
G01*
X124875000Y-105325000D01*
G75*
G02*
X124637500Y-105562500I-237500J0D01*
G01*
X124162500Y-105562500D01*
G75*
G02*
X123925000Y-105325000I0J237500D01*
G01*
X123925000Y-104725000D01*
G75*
G02*
X124162500Y-104487500I237500J0D01*
G01*
G37*
%TD*%
M02*
