M48
; DRILL file {KiCad 5.1.10} date Tue Jun  8 01:23:02 2021
; FORMAT={-:-/ absolute / metric / decimal}
; #@! TF.CreationDate,2021-06-08T01:23:02+10:00
; #@! TF.GenerationSoftware,Kicad,Pcbnew,5.1.10
; #@! TF.FileFunction,Plated,1,2,PTH
FMAT,2
METRIC
T1C0.400
T2C1.000
T3C1.100
T4C1.200
%
G90
G05
T1
X124.4Y-107.9
X125.5Y-103.4
X125.6Y-105.925
X128.1Y-103.6
X130.05Y-104.95
X134.0Y-105.0
X134.0Y-106.8
X140.4Y-105.4
X144.8Y-94.6
X148.0Y-105.2
X149.8Y-85.4
X151.155Y-83.245
X151.5Y-87.9
X151.6Y-92.9
X156.8Y-102.8
X157.7Y-105.0
X159.6Y-88.9
X159.6Y-90.8
X159.6Y-92.7
X161.5Y-88.9
X161.5Y-90.8
X161.5Y-92.7
X163.4Y-88.9
X163.4Y-90.8
X163.4Y-92.7
X166.9Y-102.7
X169.4Y-83.2
T2
X134.0Y-75.5
X134.0Y-79.5
X136.54Y-75.5
X136.54Y-79.5
X139.08Y-75.5
X139.08Y-79.5
X141.62Y-75.5
X141.62Y-79.5
X144.16Y-75.5
T3
X123.0Y-99.8
X123.0Y-112.5
T4
X122.5Y-78.0
X126.0Y-78.0
X129.5Y-78.0
T0
M30
