%TF.GenerationSoftware,KiCad,Pcbnew,5.1.10*%
%TF.CreationDate,2021-06-08T01:23:06+10:00*%
%TF.ProjectId,mail-to-telegram,6d61696c-2d74-46f2-9d74-656c65677261,v1.0*%
%TF.SameCoordinates,Original*%
%TF.FileFunction,Legend,Bot*%
%TF.FilePolarity,Positive*%
%FSLAX46Y46*%
G04 Gerber Fmt 4.6, Leading zero omitted, Abs format (unit mm)*
G04 Created by KiCad (PCBNEW 5.1.10) date 2021-06-08 01:23:06*
%MOMM*%
%LPD*%
G01*
G04 APERTURE LIST*
%ADD10C,0.150000*%
%ADD11C,0.120000*%
G04 APERTURE END LIST*
D10*
X146749880Y-77536904D02*
X146787976Y-77575000D01*
X146864166Y-77613095D01*
X147054642Y-77613095D01*
X147130833Y-77575000D01*
X147168928Y-77536904D01*
X147207023Y-77460714D01*
X147207023Y-77384523D01*
X147168928Y-77270238D01*
X146711785Y-76813095D01*
X147207023Y-76813095D01*
X147473690Y-77613095D02*
X148007023Y-77613095D01*
X147664166Y-76813095D01*
X150064166Y-77613095D02*
X150559404Y-77613095D01*
X150292738Y-77308333D01*
X150407023Y-77308333D01*
X150483214Y-77270238D01*
X150521309Y-77232142D01*
X150559404Y-77155952D01*
X150559404Y-76965476D01*
X150521309Y-76889285D01*
X150483214Y-76851190D01*
X150407023Y-76813095D01*
X150178452Y-76813095D01*
X150102261Y-76851190D01*
X150064166Y-76889285D01*
X150864166Y-77536904D02*
X150902261Y-77575000D01*
X150978452Y-77613095D01*
X151168928Y-77613095D01*
X151245119Y-77575000D01*
X151283214Y-77536904D01*
X151321309Y-77460714D01*
X151321309Y-77384523D01*
X151283214Y-77270238D01*
X150826071Y-76813095D01*
X151321309Y-76813095D01*
X152807023Y-77613095D02*
X153302261Y-77613095D01*
X153035595Y-77308333D01*
X153149880Y-77308333D01*
X153226071Y-77270238D01*
X153264166Y-77232142D01*
X153302261Y-77155952D01*
X153302261Y-76965476D01*
X153264166Y-76889285D01*
X153226071Y-76851190D01*
X153149880Y-76813095D01*
X152921309Y-76813095D01*
X152845119Y-76851190D01*
X152807023Y-76889285D01*
X154026071Y-77613095D02*
X153645119Y-77613095D01*
X153607023Y-77232142D01*
X153645119Y-77270238D01*
X153721309Y-77308333D01*
X153911785Y-77308333D01*
X153987976Y-77270238D01*
X154026071Y-77232142D01*
X154064166Y-77155952D01*
X154064166Y-76965476D01*
X154026071Y-76889285D01*
X153987976Y-76851190D01*
X153911785Y-76813095D01*
X153721309Y-76813095D01*
X153645119Y-76851190D01*
X153607023Y-76889285D01*
X155549880Y-77613095D02*
X156045119Y-77613095D01*
X155778452Y-77308333D01*
X155892738Y-77308333D01*
X155968928Y-77270238D01*
X156007023Y-77232142D01*
X156045119Y-77155952D01*
X156045119Y-76965476D01*
X156007023Y-76889285D01*
X155968928Y-76851190D01*
X155892738Y-76813095D01*
X155664166Y-76813095D01*
X155587976Y-76851190D01*
X155549880Y-76889285D01*
X156730833Y-77346428D02*
X156730833Y-76813095D01*
X156540357Y-77651190D02*
X156349880Y-77079761D01*
X156845119Y-77079761D01*
X147054642Y-75882142D02*
X147168928Y-75844047D01*
X147207023Y-75805952D01*
X147245119Y-75729761D01*
X147245119Y-75615476D01*
X147207023Y-75539285D01*
X147168928Y-75501190D01*
X147092738Y-75463095D01*
X146787976Y-75463095D01*
X146787976Y-76263095D01*
X147054642Y-76263095D01*
X147130833Y-76225000D01*
X147168928Y-76186904D01*
X147207023Y-76110714D01*
X147207023Y-76034523D01*
X147168928Y-75958333D01*
X147130833Y-75920238D01*
X147054642Y-75882142D01*
X146787976Y-75882142D01*
X147587976Y-75767857D02*
X148197500Y-75767857D01*
X147892738Y-75463095D02*
X147892738Y-76072619D01*
X149721309Y-76263095D02*
X150216547Y-76263095D01*
X149949880Y-75958333D01*
X150064166Y-75958333D01*
X150140357Y-75920238D01*
X150178452Y-75882142D01*
X150216547Y-75805952D01*
X150216547Y-75615476D01*
X150178452Y-75539285D01*
X150140357Y-75501190D01*
X150064166Y-75463095D01*
X149835595Y-75463095D01*
X149759404Y-75501190D01*
X149721309Y-75539285D01*
X150559404Y-75539285D02*
X150597500Y-75501190D01*
X150559404Y-75463095D01*
X150521309Y-75501190D01*
X150559404Y-75539285D01*
X150559404Y-75463095D01*
X150864166Y-76263095D02*
X151359404Y-76263095D01*
X151092738Y-75958333D01*
X151207023Y-75958333D01*
X151283214Y-75920238D01*
X151321309Y-75882142D01*
X151359404Y-75805952D01*
X151359404Y-75615476D01*
X151321309Y-75539285D01*
X151283214Y-75501190D01*
X151207023Y-75463095D01*
X150978452Y-75463095D01*
X150902261Y-75501190D01*
X150864166Y-75539285D01*
X152730833Y-76225000D02*
X152654642Y-76263095D01*
X152540357Y-76263095D01*
X152426071Y-76225000D01*
X152349880Y-76148809D01*
X152311785Y-76072619D01*
X152273690Y-75920238D01*
X152273690Y-75805952D01*
X152311785Y-75653571D01*
X152349880Y-75577380D01*
X152426071Y-75501190D01*
X152540357Y-75463095D01*
X152616547Y-75463095D01*
X152730833Y-75501190D01*
X152768928Y-75539285D01*
X152768928Y-75805952D01*
X152616547Y-75805952D01*
X153111785Y-75463095D02*
X153111785Y-76263095D01*
X153568928Y-75463095D01*
X153568928Y-76263095D01*
X153949880Y-75463095D02*
X153949880Y-76263095D01*
X154140357Y-76263095D01*
X154254642Y-76225000D01*
X154330833Y-76148809D01*
X154368928Y-76072619D01*
X154407023Y-75920238D01*
X154407023Y-75805952D01*
X154368928Y-75653571D01*
X154330833Y-75577380D01*
X154254642Y-75501190D01*
X154140357Y-75463095D01*
X153949880Y-75463095D01*
X155816547Y-75463095D02*
X155549880Y-75844047D01*
X155359404Y-75463095D02*
X155359404Y-76263095D01*
X155664166Y-76263095D01*
X155740357Y-76225000D01*
X155778452Y-76186904D01*
X155816547Y-76110714D01*
X155816547Y-75996428D01*
X155778452Y-75920238D01*
X155740357Y-75882142D01*
X155664166Y-75844047D01*
X155359404Y-75844047D01*
X156083214Y-76263095D02*
X156616547Y-75463095D01*
X156616547Y-76263095D02*
X156083214Y-75463095D01*
X158026071Y-76263095D02*
X158483214Y-76263095D01*
X158254642Y-75463095D02*
X158254642Y-76263095D01*
X158673690Y-76263095D02*
X159207023Y-75463095D01*
X159207023Y-76263095D02*
X158673690Y-75463095D01*
X147407023Y-79142857D02*
X147359404Y-79095238D01*
X147216547Y-79047619D01*
X147121309Y-79047619D01*
X146978452Y-79095238D01*
X146883214Y-79190476D01*
X146835595Y-79285714D01*
X146787976Y-79476190D01*
X146787976Y-79619047D01*
X146835595Y-79809523D01*
X146883214Y-79904761D01*
X146978452Y-80000000D01*
X147121309Y-80047619D01*
X147216547Y-80047619D01*
X147359404Y-80000000D01*
X147407023Y-79952380D01*
X147787976Y-79333333D02*
X148264166Y-79333333D01*
X147692738Y-79047619D02*
X148026071Y-80047619D01*
X148359404Y-79047619D01*
X148692738Y-79047619D02*
X148692738Y-80047619D01*
X149073690Y-80047619D01*
X149168928Y-80000000D01*
X149216547Y-79952380D01*
X149264166Y-79857142D01*
X149264166Y-79714285D01*
X149216547Y-79619047D01*
X149168928Y-79571428D01*
X149073690Y-79523809D01*
X148692738Y-79523809D01*
X150407023Y-79095238D02*
X150549880Y-79047619D01*
X150787976Y-79047619D01*
X150883214Y-79095238D01*
X150930833Y-79142857D01*
X150978452Y-79238095D01*
X150978452Y-79333333D01*
X150930833Y-79428571D01*
X150883214Y-79476190D01*
X150787976Y-79523809D01*
X150597500Y-79571428D01*
X150502261Y-79619047D01*
X150454642Y-79666666D01*
X150407023Y-79761904D01*
X150407023Y-79857142D01*
X150454642Y-79952380D01*
X150502261Y-80000000D01*
X150597500Y-80047619D01*
X150835595Y-80047619D01*
X150978452Y-80000000D01*
X151311785Y-80047619D02*
X151549880Y-79047619D01*
X151740357Y-79761904D01*
X151930833Y-79047619D01*
X152168928Y-80047619D01*
X153835595Y-80000000D02*
X153740357Y-80047619D01*
X153597500Y-80047619D01*
X153454642Y-80000000D01*
X153359404Y-79904761D01*
X153311785Y-79809523D01*
X153264166Y-79619047D01*
X153264166Y-79476190D01*
X153311785Y-79285714D01*
X153359404Y-79190476D01*
X153454642Y-79095238D01*
X153597500Y-79047619D01*
X153692738Y-79047619D01*
X153835595Y-79095238D01*
X153883214Y-79142857D01*
X153883214Y-79476190D01*
X153692738Y-79476190D01*
X154311785Y-79047619D02*
X154311785Y-80047619D01*
X154883214Y-79047619D01*
X154883214Y-80047619D01*
X155359404Y-79047619D02*
X155359404Y-80047619D01*
X155597500Y-80047619D01*
X155740357Y-80000000D01*
X155835595Y-79904761D01*
X155883214Y-79809523D01*
X155930833Y-79619047D01*
X155930833Y-79476190D01*
X155883214Y-79285714D01*
X155835595Y-79190476D01*
X155740357Y-79095238D01*
X155597500Y-79047619D01*
X155359404Y-79047619D01*
X160018005Y-78658333D02*
X160494196Y-78658333D01*
X159887053Y-78372619D02*
X160345386Y-79372619D01*
X160553720Y-78372619D01*
X160875148Y-79039285D02*
X161029910Y-78372619D01*
X161351339Y-79039285D01*
X161791815Y-78372619D02*
X161702529Y-78420238D01*
X161660863Y-78467857D01*
X161625148Y-78563095D01*
X161660863Y-78848809D01*
X161720386Y-78944047D01*
X161773958Y-78991666D01*
X161875148Y-79039285D01*
X162018005Y-79039285D01*
X162107291Y-78991666D01*
X162148958Y-78944047D01*
X162184672Y-78848809D01*
X162148958Y-78563095D01*
X162089434Y-78467857D01*
X162035863Y-78420238D01*
X161934672Y-78372619D01*
X161791815Y-78372619D01*
X162553720Y-78372619D02*
X162637053Y-79039285D01*
X162678720Y-79372619D02*
X162625148Y-79325000D01*
X162666815Y-79277380D01*
X162720386Y-79325000D01*
X162678720Y-79372619D01*
X162666815Y-79277380D01*
X163458482Y-78372619D02*
X163583482Y-79372619D01*
X163464434Y-78420238D02*
X163363244Y-78372619D01*
X163172767Y-78372619D01*
X163083482Y-78420238D01*
X163041815Y-78467857D01*
X163006101Y-78563095D01*
X163041815Y-78848809D01*
X163101339Y-78944047D01*
X163154910Y-78991666D01*
X163256101Y-79039285D01*
X163446577Y-79039285D01*
X163535863Y-78991666D01*
X165131101Y-78420238D02*
X165029910Y-78372619D01*
X164839434Y-78372619D01*
X164750148Y-78420238D01*
X164708482Y-78467857D01*
X164672767Y-78563095D01*
X164708482Y-78848809D01*
X164768005Y-78944047D01*
X164821577Y-78991666D01*
X164922767Y-79039285D01*
X165113244Y-79039285D01*
X165202529Y-78991666D01*
X165696577Y-78372619D02*
X165607291Y-78420238D01*
X165565625Y-78467857D01*
X165529910Y-78563095D01*
X165565625Y-78848809D01*
X165625148Y-78944047D01*
X165678720Y-78991666D01*
X165779910Y-79039285D01*
X165922767Y-79039285D01*
X166012053Y-78991666D01*
X166053720Y-78944047D01*
X166089434Y-78848809D01*
X166053720Y-78563095D01*
X165994196Y-78467857D01*
X165940625Y-78420238D01*
X165839434Y-78372619D01*
X165696577Y-78372619D01*
X166541815Y-79039285D02*
X166458482Y-78372619D01*
X166529910Y-78944047D02*
X166583482Y-78991666D01*
X166684672Y-79039285D01*
X166827529Y-79039285D01*
X166916815Y-78991666D01*
X166952529Y-78896428D01*
X166887053Y-78372619D01*
X167791815Y-78372619D02*
X167916815Y-79372619D01*
X167797767Y-78420238D02*
X167696577Y-78372619D01*
X167506101Y-78372619D01*
X167416815Y-78420238D01*
X167375148Y-78467857D01*
X167339434Y-78563095D01*
X167375148Y-78848809D01*
X167434672Y-78944047D01*
X167488244Y-78991666D01*
X167589434Y-79039285D01*
X167779910Y-79039285D01*
X167869196Y-78991666D01*
X168779910Y-79039285D02*
X168696577Y-78372619D01*
X168351339Y-79039285D02*
X168285863Y-78515476D01*
X168321577Y-78420238D01*
X168410863Y-78372619D01*
X168553720Y-78372619D01*
X168654910Y-78420238D01*
X168708482Y-78467857D01*
X169607291Y-78420238D02*
X169506101Y-78372619D01*
X169315625Y-78372619D01*
X169226339Y-78420238D01*
X169184672Y-78467857D01*
X169148958Y-78563095D01*
X169184672Y-78848809D01*
X169244196Y-78944047D01*
X169297767Y-78991666D01*
X169398958Y-79039285D01*
X169589434Y-79039285D01*
X169678720Y-78991666D01*
X169970386Y-79039285D02*
X170351339Y-79039285D01*
X170154910Y-79372619D02*
X170047767Y-78515476D01*
X170083482Y-78420238D01*
X170172767Y-78372619D01*
X170268005Y-78372619D01*
X170744196Y-78372619D02*
X170654910Y-78420238D01*
X170613244Y-78467857D01*
X170577529Y-78563095D01*
X170613244Y-78848809D01*
X170672767Y-78944047D01*
X170726339Y-78991666D01*
X170827529Y-79039285D01*
X170970386Y-79039285D01*
X171059672Y-78991666D01*
X171101339Y-78944047D01*
X171137053Y-78848809D01*
X171101339Y-78563095D01*
X171041815Y-78467857D01*
X170988244Y-78420238D01*
X170887053Y-78372619D01*
X170744196Y-78372619D01*
X171506101Y-78372619D02*
X171589434Y-79039285D01*
X171565625Y-78848809D02*
X171625148Y-78944047D01*
X171678720Y-78991666D01*
X171779910Y-79039285D01*
X171875148Y-79039285D01*
X172083482Y-78420238D02*
X172172767Y-78372619D01*
X172363244Y-78372619D01*
X172464434Y-78420238D01*
X172523958Y-78515476D01*
X172529910Y-78563095D01*
X172494196Y-78658333D01*
X172404910Y-78705952D01*
X172262053Y-78705952D01*
X172172767Y-78753571D01*
X172137053Y-78848809D01*
X172143005Y-78896428D01*
X172202529Y-78991666D01*
X172303720Y-79039285D01*
X172446577Y-79039285D01*
X172535863Y-78991666D01*
X163982291Y-76722619D02*
X164065625Y-77389285D01*
X164107291Y-77722619D02*
X164053720Y-77675000D01*
X164095386Y-77627380D01*
X164148958Y-77675000D01*
X164107291Y-77722619D01*
X164095386Y-77627380D01*
X164541815Y-77389285D02*
X164458482Y-76722619D01*
X164529910Y-77294047D02*
X164583482Y-77341666D01*
X164684672Y-77389285D01*
X164827529Y-77389285D01*
X164916815Y-77341666D01*
X164952529Y-77246428D01*
X164887053Y-76722619D01*
X166065625Y-77389285D02*
X166446577Y-77389285D01*
X166250148Y-77722619D02*
X166143005Y-76865476D01*
X166178720Y-76770238D01*
X166268005Y-76722619D01*
X166363244Y-76722619D01*
X166696577Y-76722619D02*
X166821577Y-77722619D01*
X167125148Y-76722619D02*
X167190625Y-77246428D01*
X167154910Y-77341666D01*
X167065625Y-77389285D01*
X166922767Y-77389285D01*
X166821577Y-77341666D01*
X166768005Y-77294047D01*
X167601339Y-76722619D02*
X167684672Y-77389285D01*
X167726339Y-77722619D02*
X167672767Y-77675000D01*
X167714434Y-77627380D01*
X167768005Y-77675000D01*
X167726339Y-77722619D01*
X167714434Y-77627380D01*
X168035863Y-76770238D02*
X168125148Y-76722619D01*
X168315625Y-76722619D01*
X168416815Y-76770238D01*
X168476339Y-76865476D01*
X168482291Y-76913095D01*
X168446577Y-77008333D01*
X168357291Y-77055952D01*
X168214434Y-77055952D01*
X168125148Y-77103571D01*
X168089434Y-77198809D01*
X168095386Y-77246428D01*
X168154910Y-77341666D01*
X168256101Y-77389285D01*
X168398958Y-77389285D01*
X168488244Y-77341666D01*
X170077529Y-76722619D02*
X170143005Y-77246428D01*
X170107291Y-77341666D01*
X170018005Y-77389285D01*
X169827529Y-77389285D01*
X169726339Y-77341666D01*
X170083482Y-76770238D02*
X169982291Y-76722619D01*
X169744196Y-76722619D01*
X169654910Y-76770238D01*
X169619196Y-76865476D01*
X169631101Y-76960714D01*
X169690625Y-77055952D01*
X169791815Y-77103571D01*
X170029910Y-77103571D01*
X170131101Y-77151190D01*
X170553720Y-76722619D02*
X170637053Y-77389285D01*
X170613244Y-77198809D02*
X170672767Y-77294047D01*
X170726339Y-77341666D01*
X170827529Y-77389285D01*
X170922767Y-77389285D01*
X171559672Y-76770238D02*
X171458482Y-76722619D01*
X171268005Y-76722619D01*
X171178720Y-76770238D01*
X171143005Y-76865476D01*
X171190625Y-77246428D01*
X171250148Y-77341666D01*
X171351339Y-77389285D01*
X171541815Y-77389285D01*
X171631101Y-77341666D01*
X171666815Y-77246428D01*
X171654910Y-77151190D01*
X171166815Y-77055952D01*
X172458482Y-76722619D02*
X172523958Y-77246428D01*
X172488244Y-77341666D01*
X172398958Y-77389285D01*
X172208482Y-77389285D01*
X172107291Y-77341666D01*
X172464434Y-76770238D02*
X172363244Y-76722619D01*
X172125148Y-76722619D01*
X172035863Y-76770238D01*
X172000148Y-76865476D01*
X172012053Y-76960714D01*
X172071577Y-77055952D01*
X172172767Y-77103571D01*
X172410863Y-77103571D01*
X172512053Y-77151190D01*
D11*
%TO.C,BT1*%
X120290000Y-119620000D02*
X120290000Y-81880000D01*
X120290000Y-81880000D02*
X173160000Y-81880000D01*
X173160000Y-119620000D02*
X173160000Y-81880000D01*
X120290000Y-119620000D02*
X173160000Y-119620000D01*
X119910000Y-120000000D02*
X122910000Y-120000000D01*
X119910000Y-117000000D02*
X119910000Y-120000000D01*
%TO.C,J2*%
X132670000Y-78170000D02*
X132670000Y-79500000D01*
X134000000Y-78170000D02*
X132670000Y-78170000D01*
X135270000Y-78170000D02*
X135270000Y-80830000D01*
X135270000Y-80830000D02*
X142950000Y-80830000D01*
X135270000Y-78170000D02*
X142950000Y-78170000D01*
X142950000Y-78170000D02*
X142950000Y-80830000D01*
%TO.C,J1*%
X132670000Y-74170000D02*
X132670000Y-75500000D01*
X134000000Y-74170000D02*
X132670000Y-74170000D01*
X135270000Y-74170000D02*
X135270000Y-76830000D01*
X135270000Y-76830000D02*
X145490000Y-76830000D01*
X135270000Y-74170000D02*
X145490000Y-74170000D01*
X145490000Y-74170000D02*
X145490000Y-76830000D01*
%TO.C,J3*%
X120450000Y-73200000D02*
X120850000Y-73200000D01*
X120450000Y-73840000D02*
X120450000Y-73200000D01*
X128355000Y-77059000D02*
X128226000Y-76931000D01*
X130570000Y-79275000D02*
X130476000Y-79181000D01*
X128525000Y-76819000D02*
X128431000Y-76726000D01*
X130775000Y-79069000D02*
X130646000Y-78941000D01*
X124855000Y-77059000D02*
X124726000Y-76931000D01*
X127070000Y-79275000D02*
X126976000Y-79181000D01*
X125025000Y-76819000D02*
X124931000Y-76726000D01*
X127275000Y-79069000D02*
X127146000Y-78941000D01*
X131310000Y-81160000D02*
X131310000Y-73440000D01*
X120690000Y-81160000D02*
X120690000Y-73440000D01*
X120690000Y-73440000D02*
X131310000Y-73440000D01*
X120690000Y-81160000D02*
X131310000Y-81160000D01*
X120690000Y-75000000D02*
X131310000Y-75000000D01*
X120690000Y-73900000D02*
X131310000Y-73900000D01*
X131180000Y-78000000D02*
G75*
G03*
X131180000Y-78000000I-1680000J0D01*
G01*
X127680000Y-78000000D02*
G75*
G03*
X127680000Y-78000000I-1680000J0D01*
G01*
X122528674Y-76319901D02*
G75*
G03*
X121634000Y-76560000I-28674J-1680099D01*
G01*
X121074642Y-77110106D02*
G75*
G03*
X121060000Y-78866000I1425358J-889894D01*
G01*
X121610106Y-79425358D02*
G75*
G03*
X123366000Y-79440000I889894J1425358D01*
G01*
X123925505Y-78890193D02*
G75*
G03*
X123925000Y-77109000I-1425505J890193D01*
G01*
X123390264Y-76575279D02*
G75*
G03*
X122500000Y-76320000I-890264J-1424721D01*
G01*
%TO.C,BT1*%
D10*
X127442857Y-112514285D02*
X125157142Y-112514285D01*
X126300000Y-113657142D02*
X126300000Y-111371428D01*
%TO.C,J2*%
X131122380Y-79166666D02*
X131836666Y-79166666D01*
X131979523Y-79119047D01*
X132074761Y-79023809D01*
X132122380Y-78880952D01*
X132122380Y-78785714D01*
X131217619Y-79595238D02*
X131170000Y-79642857D01*
X131122380Y-79738095D01*
X131122380Y-79976190D01*
X131170000Y-80071428D01*
X131217619Y-80119047D01*
X131312857Y-80166666D01*
X131408095Y-80166666D01*
X131550952Y-80119047D01*
X132122380Y-79547619D01*
X132122380Y-80166666D01*
%TO.C,J1*%
X131122380Y-75166666D02*
X131836666Y-75166666D01*
X131979523Y-75119047D01*
X132074761Y-75023809D01*
X132122380Y-74880952D01*
X132122380Y-74785714D01*
X132122380Y-76166666D02*
X132122380Y-75595238D01*
X132122380Y-75880952D02*
X131122380Y-75880952D01*
X131265238Y-75785714D01*
X131360476Y-75690476D01*
X131408095Y-75595238D01*
%TO.C,J3*%
X126333333Y-81612380D02*
X126333333Y-82326666D01*
X126380952Y-82469523D01*
X126476190Y-82564761D01*
X126619047Y-82612380D01*
X126714285Y-82612380D01*
X125952380Y-81612380D02*
X125333333Y-81612380D01*
X125666666Y-81993333D01*
X125523809Y-81993333D01*
X125428571Y-82040952D01*
X125380952Y-82088571D01*
X125333333Y-82183809D01*
X125333333Y-82421904D01*
X125380952Y-82517142D01*
X125428571Y-82564761D01*
X125523809Y-82612380D01*
X125809523Y-82612380D01*
X125904761Y-82564761D01*
X125952380Y-82517142D01*
%TD*%
M02*
